<?xml version="1.0" encoding="UTF-8" standalone="no"?>
<!-- Created with Inkscape (http://www.inkscape.org/) -->
<svg id="svg2" xmlns:rdf="http://www.w3.org/1999/02/22-rdf-syntax-ns#" xmlns="http://www.w3.org/2000/svg" height="86" width="250" version="1.1" xmlns:cc="http://creativecommons.org/ns#" xmlns:dc="http://purl.org/dc/elements/1.1/">
 <metadata id="metadata7">
  <rdf:RDF>
   <cc:Work rdf:about="">
    <dc:format>image/svg+xml</dc:format>
    <dc:type rdf:resource="http://purl.org/dc/dcmitype/StillImage"/>
    <dc:title/>
   </cc:Work>
  </rdf:RDF>
 </metadata>
 <g id="layer1" transform="translate(0,-966.36218)">
  <path id="flowRoot2985" fill="#000" d="M176.62-0.34375c-2.52,6.5888-3.28,11.938-3.28,11.938l-0.59,0.218c-0.78,2.028-0.75,3.032-0.75,3.032l-1.41-0.375-0.28,3.75-1.34-0.5c-0.84,2.844,0.15,4.969,0.15,4.969l-1.65-1.032c-0.56,2.702,0.12,4.313,0.12,4.313l-1.62-0.813c-0.01,1.971,0.62,4.406,0.62,4.406l-2.03-0.781c0.86,3.016,0.85,4.875,0.85,4.875l-1.72-0.906c-0.43,2.47,0.9,4.719,0.9,4.719l-2.09-0.938c-0.1,2.052,1.34,5.188,1.34,5.188-1.78-0.904-2.46-0.938-2.46-0.938,1.13,2.429,2.4,5.344,2.4,5.344l-2.37-1.344c0.95,2.492,2.56,4.688,2.56,4.688l-1.5-0.157-0.09,0.094c0.51,1.81,2.5,4.032,2.5,4.032l-1.66-0.25c1.48,3.364,3.19,4.718,3.19,4.718l-1.57-0.344c0.85,2.155,3.63,4.313,3.63,4.313l-1.35,0.125c8.67,8.306,7.69,18.188,7.69,18.188h1.25c-0.79-6.617,5.88-16.969,5.88-16.969-0.63,0.144-0.91-0.094-0.91-0.094,1.94-2.729,2.13-3.813,2.13-3.813-1.08,0.67-1.32,0.344-1.32,0.344,2.05-3.155,2.22-4.5,2.22-4.5-1.18,0.284-1.22,0.032-1.22,0.032,2.01-2.241,2.44-4.5,2.44-4.5-1.92,1.125-1.9,0.906-1.9,0.906,0.78-2.249,2.28-5.125,2.28-5.125-1.31,0.342-1.82,0.219-1.82,0.219,2.42-3.552,1.88-4.5,1.88-4.5-2.23,0.704-2.53,0.406-2.53,0.406,3.23-4.252,2.25-4.719,2.25-4.719-0.98,0.638-2.1,0.25-2.1,0.25,1.53-2.723,1.13-4.5,1.13-4.5l-2,0.437c1.59-2.949,1.06-4.687,1.06-4.687l-1.94,0.281c1.2-3.56,0.16-4.218,0.16-4.218-1.09,0.301-1.59,0.187-1.59,0.187,1.48-3.335,0.65-3.937,0.65-3.937-1.79,1.116-1.72,0.593-1.72,0.593,0.08-0.448,0.85-1.375,0.85-1.375-1.12-0.165-0.88-0.375-0.88-0.375,0.88-1.197,0.28-3.469,0.28-3.469-1.19,0.728-1.4,0.407-1.4,0.407,0.22-2.603,0.06-4.719,0.06-4.719l-0.94-0.188c-0.83-3.3128-0.44-12.906-0.44-12.906zm26.44,1.0938c-2.52,6.5888-3.31,11.938-3.31,11.938l-0.56,0.218c-0.78,2.027-0.75,3.032-0.75,3.032l-1.41-0.407-0.31,3.781-1.31-0.531c-0.84,2.845,0.15,5,0.15,5l-1.65-1.031c-0.57,2.701,0.12,4.281,0.12,4.281l-1.65-0.812c-0.02,1.971,0.65,4.406,0.65,4.406l-2.03-0.781c0.86,3.016,0.84,4.906,0.84,4.906l-1.72-0.938c-0.43,2.471,0.91,4.719,0.91,4.719l-2.12-0.906c-0.1,2.051,1.37,5.156,1.37,5.156-1.78-0.903-2.47-0.937-2.47-0.937,1.14,2.429,2.41,5.344,2.41,5.344l-2.41-1.313c0.96,2.491,2.6,4.687,2.6,4.687l-1.5-0.187-0.13,0.094c0.52,1.809,2.53,4.031,2.53,4.031l-1.65-0.25c1.48,3.364,3.18,4.719,3.18,4.719l-1.59-0.313c0.85,2.155,3.63,4.313,3.63,4.313l-1.35,0.093c8.66,8.306,7.69,18.188,7.69,18.188h1.25c-0.8-6.616,5.91-16.969,5.91-16.969-0.63,0.145-0.91-0.062-0.91-0.062,1.94-2.729,2.12-3.844,2.12-3.844-1.07,0.67-1.31,0.344-1.31,0.344,2.05-3.155,2.19-4.5,2.19-4.5-1.19,0.284-1.22,0.062-1.22,0.062,2-2.24,2.47-4.531,2.47-4.531-1.92,1.126-1.91,0.906-1.91,0.906,0.78-2.249,2.28-5.125,2.28-5.125-1.3,0.342-1.84,0.25-1.84,0.25,2.42-3.551,1.91-4.531,1.91-4.531-2.23,0.705-2.54,0.438-2.54,0.438,3.24-4.252,2.22-4.75,2.22-4.75-0.98,0.638-2.06,0.25-2.06,0.25,1.53-2.723,1.13-4.5,1.13-4.5l-2,0.437c1.59-2.949,1.06-4.687,1.06-4.687l-1.94,0.281c1.2-3.561,0.16-4.219,0.16-4.219-1.09,0.302-1.6,0.219-1.6,0.219,1.48-3.335,0.63-3.969,0.63-3.969-1.79,1.117-1.69,0.594-1.69,0.594,0.07-0.449,0.85-1.375,0.85-1.375-1.12-0.165-0.91-0.375-0.91-0.375,0.88-1.198,0.31-3.438,0.31-3.438-1.19,0.728-1.44,0.406-1.44,0.406,0.23-2.602,0.1-4.718,0.1-4.718l-0.94-0.219c-0.83-3.313-0.44-12.875-0.44-12.875zm26.78,0.3438c-2.52,6.5888-3.28,11.937-3.28,11.937l-0.59,0.219c-0.78,2.027-0.75,3.031-0.75,3.031l-1.41-0.375-0.28,3.75-1.34-0.5c-0.84,2.845,0.15,4.969,0.15,4.969l-1.65-1.031c-0.57,2.701,0.12,4.312,0.12,4.312l-1.65-0.812c-0.01,1.971,0.65,4.406,0.65,4.406l-2.03-0.812c0.86,3.015,0.84,4.906,0.84,4.906l-1.71-0.906c-0.43,2.47,0.9,4.718,0.9,4.718l-2.09-0.937c-0.1,2.051,1.34,5.156,1.34,5.156-1.78-0.904-2.47-0.906-2.47-0.906,1.14,2.429,2.41,5.343,2.41,5.343l-2.38-1.343c0.96,2.491,2.57,4.687,2.57,4.687l-1.5-0.187-0.13,0.125c0.52,1.809,2.53,4.031,2.53,4.031l-1.65-0.25c1.48,3.364,3.18,4.719,3.18,4.719l-1.59-0.344c0.85,2.155,3.63,4.312,3.63,4.312l-1.32,0.094c8.67,8.306,7.66,18.219,7.66,18.219l1.25-0.031c-0.79-6.617,5.91-16.938,5.91-16.938-0.63,0.145-0.91-0.094-0.91-0.094,1.94-2.728,2.13-3.812,2.13-3.812-1.08,0.67-1.32,0.344-1.32,0.344,2.05-3.155,2.22-4.5,2.22-4.5-1.19,0.284-1.22,0.031-1.22,0.031,2.01-2.24,2.44-4.531,2.44-4.531-1.92,1.126-1.91,0.906-1.91,0.906,0.78-2.249,2.29-5.094,2.29-5.094-1.31,0.342-1.82,0.219-1.82,0.219,2.42-3.552,1.88-4.531,1.88-4.531-2.23,0.705-2.53,0.437-2.53,0.437,3.23-4.251,2.25-4.75,2.25-4.75-0.99,0.639-2.1,0.25-2.1,0.25,1.53-2.722,1.13-4.469,1.13-4.469l-2,0.438c1.59-2.949,1.06-4.688,1.06-4.688l-1.94,0.25c1.2-3.56,0.16-4.218,0.16-4.218-1.09,0.301-1.59,0.218-1.59,0.218,1.48-3.335,0.62-3.968,0.62-3.968-1.79,1.116-1.69,0.594-1.69,0.594,0.08-0.449,0.85-1.344,0.85-1.344-1.12-0.165-0.91-0.406-0.91-0.406,0.88-1.198,0.31-3.438,0.31-3.438-1.19,0.728-1.4,0.406-1.4,0.406,0.22-2.602,0.06-4.718,0.06-4.718l-0.94-0.188c-0.83-3.313-0.44-12.906-0.44-12.906zm-197,26.25v33.187c0,4.272-0.791,7.287-2.375,9.063-1.584,1.728-4.107,2.594-7.563,2.594-2.4,0-4.43-0.389-6.062-1.157-1.584-0.816-2.867-1.592-3.875-2.312l-2.75,5.562c0.48,0.432,1.121,0.895,1.937,1.375,0.816,0.432,1.802,0.85,2.906,1.282,1.104,0.384,2.313,0.697,3.657,0.937,1.392,0.288,2.899,0.437,4.531,0.437,3.216,0,5.888-0.448,8-1.312,2.16-0.912,3.877-2.12,5.125-3.656,1.296-1.584,2.176-3.405,2.656-5.469,0.528-2.064,0.781-4.319,0.781-6.719v-33.812h-6.968zm38.375,17.375c-0.827,0-1.539,0.279-2.125,0.812-0.587,0.534-0.875,1.254-0.875,2.188,0,0.906,0.288,1.623,0.875,2.156,0.586,0.533,1.298,0.813,2.125,0.813,0.8,0,1.476-0.28,2.062-0.813,0.587-0.533,0.906-1.25,0.907-2.156-0.001-0.934-0.32-1.654-0.907-2.188-0.586-0.533-1.262-0.812-2.062-0.812zm41.341,2.312v17.313c0,1.6,0.2,3.073,0.63,4.406,0.42,1.333,1.09,2.513,1.97,3.5,0.9,0.987,2.04,1.753,3.4,2.312,1.36,0.534,2.98,0.782,4.88,0.782,1.89,0,3.55-0.248,4.94-0.782,1.38-0.559,2.49-1.325,3.37-2.312,0.91-0.987,1.57-2.167,2-3.5,0.45-1.333,0.69-2.806,0.69-4.406v-17.313h-5.06v16.844c-0.01,1.253-0.15,2.343-0.44,3.25-0.27,0.88-0.69,1.596-1.22,2.156-0.51,0.56-1.13,0.984-1.84,1.25-0.73,0.267-1.53,0.375-2.41,0.375s-1.66-0.108-2.38-0.375c-0.69-0.266-1.31-0.69-1.84-1.25-0.51-0.56-0.93-1.276-1.22-2.156-0.27-0.907-0.37-1.997-0.37-3.25v-16.844h-5.1zm-58.81,6.281c-1.467,0.001-2.805,0.28-4.031,0.813-1.227,0.507-2.312,1.228-3.219,2.187-0.88,0.961-1.556,2.141-2.062,3.5-0.481,1.334-0.719,2.816-0.719,4.469,0,1.654,0.238,3.172,0.719,4.531,0.506,1.361,1.182,2.509,2.062,3.469s1.93,1.717,3.156,2.25c1.227,0.534,2.601,0.781,4.094,0.781s2.836-0.247,4.062-0.781c1.254-0.533,2.339-1.29,3.219-2.25s1.551-2.108,2.031-3.469c0.48-1.359,0.719-2.877,0.719-4.531,0-1.653-0.243-3.135-0.75-4.469-0.48-1.359-1.151-2.539-2.031-3.5-0.88-0.959-1.965-1.68-3.219-2.187-1.226-0.533-2.564-0.812-4.031-0.813zm93.63,0c-2.43,0.001-4.37,0.568-5.79,1.688-1.41,1.093-2.09,2.611-2.09,4.531,0,0.987,0.14,1.807,0.44,2.5,0.32,0.667,0.75,1.239,1.28,1.719s1.15,0.908,1.87,1.281c0.75,0.347,1.56,0.68,2.44,1,1.44,0.534,2.45,1.047,3.06,1.5,0.64,0.454,0.97,1.026,0.97,1.719,0,0.747-0.29,1.274-0.87,1.594-0.59,0.293-1.54,0.437-2.81,0.437-1.29,0-2.43-0.139-3.44-0.406-0.99-0.267-1.84-0.55-2.56-0.844l-0.82,4.031c0.46,0.187,1.23,0.457,2.35,0.75,1.12,0.32,2.59,0.469,4.43,0.469,2.75,0,4.85-0.518,6.32-1.531,1.49-1.04,2.25-2.562,2.25-4.562,0-0.934-0.11-1.709-0.35-2.376-0.24-0.666-0.65-1.274-1.18-1.781-0.51-0.533-1.14-1.006-1.94-1.406-0.8-0.427-1.79-0.855-2.94-1.281-0.69-0.24-1.27-0.443-1.75-0.656-0.48-0.24-0.86-0.475-1.16-0.688-0.29-0.24-0.52-0.483-0.65-0.75-0.11-0.267-0.16-0.591-0.16-0.938,0-0.693,0.33-1.179,0.94-1.5,0.61-0.346,1.39-0.531,2.37-0.531,1.1,0,2.08,0.099,2.91,0.313,0.83,0.186,1.5,0.416,2.03,0.656l0.88-3.938c-0.56-0.213-1.42-0.411-2.53-0.624-1.13-0.24-2.28-0.375-3.5-0.376zm-59.005,0.094c-1.813,0-3.444,0.104-4.937,0.344-1.494,0.24-2.723,0.515-3.657,0.781v20.219h4.844v-16.875c0.32-0.053,0.802-0.107,1.469-0.187,0.666-0.08,1.324-0.125,1.937-0.126,0.827,0.001,1.503,0.104,2.063,0.344,0.586,0.214,1.055,0.587,1.375,1.094,0.346,0.48,0.585,1.106,0.719,1.906,0.159,0.774,0.249,1.724,0.25,2.844v11h4.843v-11.75c0-1.413-0.175-2.702-0.469-3.875-0.266-1.2-0.744-2.236-1.437-3.063-0.667-0.853-1.572-1.484-2.719-1.937-1.146-0.48-2.574-0.719-4.281-0.719zm-19.563,0.438v20.906h4.844v-20.906h-4.844zm-15.656,3.687c0.189-0.019,0.394,0,0.594,0,1.6,0,2.839,0.586,3.719,1.813,0.906,1.2,1.343,2.857,1.343,4.937,0,2.107-0.437,3.774-1.343,5-0.88,1.227-2.119,1.844-3.719,1.844s-2.843-0.617-3.75-1.844c-0.88-1.226-1.344-2.893-1.344-5,0-2.08,0.464-3.737,1.344-4.937,0.793-1.074,1.832-1.679,3.156-1.813z" transform="translate(0,966.36218)"/>
 </g>
</svg>
