<?xml version="1.0" encoding="utf-8"?>
<!-- Generator: Adobe Illustrator 17.0.0, SVG Export Plug-In . SVG Version: 6.00 Build 0)  -->
<!DOCTYPE svg PUBLIC "-//W3C//DTD SVG 1.1//EN" "http://www.w3.org/Graphics/SVG/1.1/DTD/svg11.dtd">
<svg version="1.1" id="Layer_1" xmlns="http://www.w3.org/2000/svg" xmlns:xlink="http://www.w3.org/1999/xlink" x="0px" y="0px"
	 width="102px" height="408px" viewBox="0 0 102 408" style="enable-background:new 0 0 102 408;" xml:space="preserve">
<style type="text/css">
	.st0{fill:none;stroke:#3A3636;stroke-miterlimit:10;}
</style>
<path class="st0" d="M11.221,248.569l5.531,0.891c0,0-5.983-10.556-9.497-22.532l8.78,6.381c0,0-4.655-13.998-8.85-25.672
	c0,0,2.497,0.116,9.069,4.459c0,0-5.342-14.998-4.984-24.858l7.768,4.466c0,0-4.938-10.774-3.352-22.647l6.337,4.366
	c0,0,0.085-9.006-3.078-23.502l7.466,3.784c0,0-2.425-11.725-2.384-21.2l6.058,3.919c0,0-2.512-7.692-0.44-20.676l6.042,4.986
	c0,0-3.592-10.311-0.52-23.983l4.856,2.495l1.109-18.101l5.152,1.875c0,0-0.108-4.844,2.747-14.588l2.15-1.035
	c0,0,2.865-25.728,12.146-57.398c0,0-1.509,46.08,1.555,62.006l3.526,0.965c0,0,0.496,10.134-0.319,22.643
	c0,0,0.861,1.575,5.262-1.924c0,0,2.1,10.809-1.137,16.565c0,0-0.849,1.028,3.252,1.82c0,0-2.774,4.409-3.042,6.566
	c0,0-0.351,2.52,6.239-2.847c0,0,3.13,3.015-2.321,19.046c0,0,1.816,0.418,5.821-1.031c0,0,3.856,3.183-0.543,20.297l7.1-1.272
	c0,0,1.982,8.334-3.883,22.511l7.373-2.126c0,0,1.406,8.508-4.208,21.595c0,0,4.085,1.858,7.698-1.21c0,0,3.66,2.373-8.235,22.809
	c0,0,1.073,1.318,9.273-2.071c0,0,1.985,4.664-6.917,21.735c0,0,1.944,0.524,6.759-1.121c0,0-5.547,13.791-8.419,24.602
	c0,0-0.016,1.067,7.043-4.344c0,0-1.676,10.934-9.051,21.703c0,0,0.112,1.173,4.48-0.192c0,0-0.567,6.447-8.113,21.613
	c0,0,0.861,1.575,4.815-1.645c0,0-0.679,5.274-7.829,18.389c0,0,1.051,1.083,3.352,0.389c0,0-24.602,49.711-21.677,81.514
	l-4.609,0.086c0,0,3.614-47.583-28.266-87.507l4.927-0.472c0,0-10.229-10.386-13.351-20.743l5.833,1.573c0,0-6.305-6.5-11.76-22.671
	l6.151,1.187c0,0-7.413-10.656-9.311-19.353"/>
</svg>
