<?xml version="1.0" encoding="UTF-8" standalone="no"?>
<!-- Created with Inkscape (http://www.inkscape.org/) -->
<svg id="svg2" xmlns:rdf="http://www.w3.org/1999/02/22-rdf-syntax-ns#" xmlns="http://www.w3.org/2000/svg" height="86" width="250" version="1.2" xmlns:cc="http://creativecommons.org/ns#" xmlns:dc="http://purl.org/dc/elements/1.1/">
 <metadata id="metadata7">
  <rdf:RDF>
   <cc:Work rdf:about="">
    <dc:format>image/svg+xml</dc:format>
    <dc:type rdf:resource="http://purl.org/dc/dcmitype/StillImage"/>
    <dc:title/>
   </cc:Work>
  </rdf:RDF>
 </metadata>
 <g id="layer1" transform="translate(0,-966.36218)">
  <path id="flowRoot2985" fill="#000" d="M29.969,26.188c-5.232,0-9.337,1.208-12.313,3.656s-4.469,5.851-4.468,10.218c-0.001,2.113,0.327,3.919,1,5.407,0.719,1.488,1.674,2.802,2.874,3.906,1.2,1.056,2.618,1.965,4.25,2.781,1.632,0.768,3.364,1.47,5.188,2.094,1.584,0.576,3.077,1.174,4.469,1.75,1.44,0.576,2.708,1.247,3.812,2.062,1.104,0.769,1.97,1.709,2.594,2.813,0.672,1.056,1,2.37,1,3.906,0,4.992-3.642,7.469-10.937,7.469-3.265,0-6.026-0.388-8.282-1.156s-3.927-1.439-5.031-2.063l-2.094,5.75c0.528,0.288,1.244,0.631,2.157,1.063,0.959,0.384,2.078,0.772,3.374,1.156,1.296,0.336,2.775,0.635,4.407,0.875,1.68,0.288,3.5,0.437,5.469,0.437,5.807,0,10.3-1.179,13.468-3.531,3.216-2.352,4.813-5.725,4.813-10.093,0-2.352-0.343-4.337-1.063-5.969-0.72-1.68-1.75-3.113-3.094-4.313-1.296-1.2-2.863-2.229-4.687-3.094-1.776-0.863-3.746-1.729-5.906-2.593-1.536-0.576-2.954-1.143-4.25-1.719-1.248-0.576-2.353-1.203-3.313-1.875-0.96-0.72-1.722-1.557-2.25-2.469s-0.781-2.031-0.781-3.375c0-1.2,0.239-2.229,0.719-3.093,0.528-0.912,1.229-1.643,2.094-2.219,0.863-0.576,1.879-1.025,3.031-1.313s2.406-0.437,3.75-0.437c2.64,0,4.938,0.313,6.906,0.937,2.016,0.576,3.523,1.189,4.531,1.813l2.219-5.688c-1.152-0.768-2.973-1.469-5.469-2.093-2.448-0.672-5.163-1-8.187-1zm29.5,28.656c-1.227,0-2.421,0.239-3.594,0.718-1.173,0.454-2.218,1.13-3.125,2.063-0.907,0.907-1.628,2.051-2.188,3.437-0.533,1.387-0.812,3.004-0.812,4.844,0,1.574,0.23,3.042,0.656,4.375,0.427,1.307,1.089,2.451,1.969,3.438,0.88,0.96,1.984,1.721,3.344,2.281,1.36,0.533,2.972,0.781,4.812,0.781,0.72,0,1.401-0.045,2.094-0.125s1.351-0.179,1.937-0.312c0.614-0.107,1.141-0.211,1.594-0.344,0.48-0.16,0.859-0.304,1.125-0.438l-0.656-3.968c-0.56,0.24-1.326,0.474-2.313,0.687-0.96,0.214-2.014,0.313-3.187,0.313-2,0-3.527-0.469-4.594-1.375-1.04-0.934-1.648-2.226-1.781-3.907h13.812c0.027-0.266,0.032-0.554,0.032-0.874,0.026-0.347,0.031-0.671,0.031-0.938,0-3.547-0.811-6.213-2.437-8-1.601-1.787-3.839-2.656-6.719-2.656zm22.812,0c-1.226,0-2.42,0.239-3.593,0.718-1.174,0.454-2.219,1.13-3.126,2.063-0.906,0.907-1.627,2.051-2.187,3.437-0.533,1.387-0.813,3.004-0.813,4.844,0,1.574,0.23,3.042,0.657,4.375,0.426,1.307,1.088,2.451,1.969,3.438,0.879,0.96,1.983,1.721,3.343,2.281,1.36,0.533,2.973,0.781,4.813,0.781,0.72,0,1.4-0.045,2.094-0.125,0.693-0.08,1.35-0.179,1.937-0.312,0.613-0.107,1.14-0.211,1.594-0.344,0.48-0.16,0.858-0.304,1.125-0.438l-0.656-3.968c-0.561,0.24-1.326,0.474-2.313,0.687-0.96,0.214-2.014,0.313-3.187,0.313-2.001,0-3.528-0.469-4.594-1.375-1.04-0.934-1.648-2.226-1.782-3.907h13.813c0.027-0.266,0.031-0.554,0.031-0.874,0.027-0.347,0.031-0.671,0.032-0.938-0.001-3.547-0.811-6.213-2.438-8-1.6-1.787-3.839-2.656-6.719-2.656zm52.749,0c-2.01,0.122-3.64,0.676-4.87,1.656-1.42,1.093-2.13,2.611-2.13,4.531,0,0.987,0.15,1.838,0.44,2.531,0.32,0.667,0.75,1.239,1.28,1.719s1.19,0.908,1.91,1.281c0.74,0.347,1.55,0.681,2.43,1,1.44,0.534,2.45,1.016,3.07,1.469,0.64,0.454,0.96,1.026,0.96,1.719,0,0.747-0.28,1.274-0.87,1.594-0.59,0.293-1.53,0.437-2.81,0.437s-2.43-0.108-3.44-0.375c-0.99-0.266-1.84-0.55-2.56-0.844l-0.85,4.032c0.46,0.186,1.26,0.425,2.38,0.718,1.12,0.32,2.6,0.469,4.44,0.469,2.74,0,4.84-0.486,6.31-1.5,1.49-1.04,2.25-2.562,2.25-4.562,0-0.934-0.14-1.74-0.38-2.407-0.24-0.666-0.62-1.243-1.15-1.75-0.51-0.533-1.17-1.006-1.97-1.406-0.8-0.426-1.76-0.854-2.91-1.281-0.69-0.24-1.27-0.474-1.75-0.687-0.48-0.24-0.86-0.475-1.15-0.688-0.3-0.24-0.53-0.483-0.66-0.75-0.11-0.267-0.16-0.56-0.16-0.906,0-0.694,0.3-1.211,0.91-1.532,0.61-0.346,1.42-0.531,2.41-0.531,1.09,0,2.04,0.131,2.87,0.344,0.83,0.187,1.53,0.385,2.06,0.625l0.88-3.906c-0.56-0.214-1.41-0.443-2.53-0.656-1.12-0.24-2.31-0.344-3.53-0.344-0.31,0-0.59-0.018-0.88,0zm-29.44,0.5v11.718c0,1.414,0.15,2.738,0.44,3.938,0.29,1.173,0.77,2.178,1.44,3.031,0.69,0.854,1.6,1.52,2.72,2,1.14,0.48,2.57,0.719,4.25,0.719,1.78,0,3.44-0.14,4.94-0.406,1.49-0.24,2.69-0.479,3.62-0.719v-20.281h-4.84v16.937c-0.32,0.08-0.81,0.134-1.47,0.188-0.64,0.053-1.26,0.094-1.85,0.093-1.62,0.001-2.77-0.477-3.43-1.437-0.64-0.96-0.97-2.572-0.97-4.813v-10.968h-4.85zm-46.059,3.531c0.72,0,1.337,0.14,1.844,0.406,0.533,0.24,0.966,0.578,1.313,1.031,0.373,0.427,0.657,0.95,0.843,1.563,0.187,0.587,0.281,1.208,0.281,1.875h-9c0.08-0.613,0.225-1.226,0.438-1.812,0.213-0.587,0.502-1.078,0.875-1.532,0.4-0.453,0.877-0.827,1.437-1.094,0.56-0.293,1.223-0.437,1.969-0.437zm22.813,0c0.72,0,1.337,0.14,1.844,0.406,0.533,0.24,0.965,0.578,1.312,1.031,0.373,0.427,0.657,0.95,0.844,1.563,0.186,0.587,0.281,1.208,0.281,1.875h-9c0.08-0.613,0.224-1.226,0.437-1.812,0.214-0.587,0.502-1.078,0.876-1.532,0.399-0.453,0.877-0.827,1.437-1.094,0.56-0.293,1.222-0.437,1.969-0.437z" transform="translate(0,966.36218)"/>
  <path id="path3163-8" fill="#f2f2f2" d="m201.39,1205.1,0.42084,0.052s-0.45523-0.615-0.72259-1.3126l0.66803,0.3717s-0.35418-0.8155-0.67336-1.4956c0,0,0.18999,0.01,0.69003,0.2598,0,0-0.40646-0.8738-0.37922-1.4481l0.59104,0.2601s-0.37571-0.6276-0.25504-1.3193l0.48216,0.2544s0.006-0.5247-0.2342-1.3692l0.56806,0.2205s-0.18451-0.6831-0.18139-1.235l0.46093,0.2283s-0.19113-0.4481-0.0335-1.2046l0.45971,0.2905s-0.2733-0.6007-0.0396-1.3971l0.36947,0.1453,0.0844-1.0545,0.39199,0.1092s-0.008-0.2821,0.20901-0.8498l0.16358-0.06s0.21799-1.4988,0.92415-3.3438c0,0-0.11482,2.6845,0.11831,3.6123l0.26828,0.056s0.0377,0.5903-0.0243,1.3191c0,0,0.0655,0.092,0.40037-0.1121,0,0,0.15978,0.6297-0.0865,0.965,0,0-0.0646,0.06,0.24743,0.106,0,0-0.21106,0.2569-0.23145,0.3825,0,0-0.0267,0.1468,0.4747-0.1658,0,0,0.23814,0.1756-0.1766,1.1095,0,0,0.13817,0.024,0.4429-0.06,0,0,0.29338,0.1854-0.0413,1.1824l0.54021-0.074s0.15081,0.4855-0.29544,1.3114l0.56098-0.1239s0.10698,0.4957-0.32017,1.2581c0,0,0.31081,0.1082,0.58571-0.071,0,0,0.27848,0.1382-0.62656,1.3287,0,0,0.0816,0.077,0.70554-0.1206,0,0,0.15103,0.2717-0.52628,1.2662,0,0,0.14791,0.031,0.51426-0.065,0,0-0.42205,0.8034-0.64057,1.4332,0,0-0.001,0.062,0.53588-0.2531,0,0-0.12752,0.637-0.68866,1.2643,0,0,0.009,0.068,0.34087-0.011,0,0-0.0431,0.3756-0.61729,1.2591,0,0,0.0655,0.092,0.36636-0.096,0,0-0.0517,0.3072-0.59568,1.0713,0,0,0.08,0.063,0.25504,0.023,0,0-1.8719,2.8959-1.6493,4.7487h-0.35068s0.27497-2.772-2.1506-5.0978l0.37487-0.027s-0.77828-0.6051-1.0158-1.2085l0.44381,0.092s-0.47972-0.3787-0.89477-1.3208l0.468,0.069s-0.56402-0.6208-0.70844-1.1274"/>
  <path id="path3237" d="m196.2,1000.9,0.93595,0.3425s-0.71549-1.6499-0.95684-3.3893l1.332,1.206s-0.37758-2.0552-0.74694-3.782c0,0,0.43141,0.11634,1.4418,0.96149,0,0-0.46629-2.2164-0.0987-3.5171l1.215,0.90975s-0.52663-1.6367,0.11714-3.1562l0.96875,0.83862s0.29362-1.1978,0.19137-3.2591l1.1834,0.80656s-0.0589-1.662,0.241-2.924l0.93401,0.76764s-0.19948-1.1275,0.56348-2.7756l0.89817,0.90939s-0.30652-1.5206,0.65186-3.2199l0.7687,0.52914,0.75359-2.3695,0.83944,0.45841s0.13116-0.65041,0.93014-1.8347l0.40662-0.0511s1.2956-3.3158,3.8928-7.1647c0,0-1.6894,6.0852-1.6487,8.3333l0.58439,0.27125s-0.22734,1.3718-0.75657,3.0072c0,0,0.10107,0.24497,0.97621-0.0438,0,0,0.0311,1.5266-0.71089,2.1634,0,0-0.17973,0.10276,0.51017,0.37428,0,0-0.61976,0.47593-0.7332,0.75275,0,0-0.13911,0.32199,1.175-0.12746,0,0,0.4519,0.52873-0.99398,2.4466,0,0,0.30342,0.12921,1.046,0.0978,0,0,0.57318,0.5804-0.72296,2.6853l1.2762,0.11732s0.0873,1.1918-1.3733,2.8455l1.3502,0.0145s-0.0188,1.1917-1.4016,2.7102c0,0,0.65412,0.413,1.3785,0.14979,0,0,0.56414,0.46456-2.1407,2.7093,0,0,0.14612,0.21925,1.6795,0.0987,0,0,0.20137,0.70235-1.8778,2.6196,0,0,0.32242,0.1484,1.2121,0.1236,0,0-1.3932,1.6151-2.2282,2.9411,0,0-0.0356,0.1417,1.3614-0.2946,0,0-0.6305,1.3905-2.2486,2.5287,0,0-0.017,0.161,0.78637,0.1555,0,0-0.29837,0.8369-2.0824,2.5547,0,0,0.10108,0.245,0.88979-0.023,0,0-0.28154,0.6761-1.9331,2.1362,0,0,0.14958,0.1868,0.57187,0.1874,0,0-5.8247,5.6358-6.2997,9.9961l-0.8056-0.1749s2.1026-6.2004-2.215-12.815l0.87292,0.1365s-1.4604-1.799-1.6836-3.3067l0.9674,0.4456s-0.89713-1.122-1.3467-3.4993l1.0348,0.4071s-0.9615-1.7211-1.0229-2.9578"/>
  <path id="path3050" fill="#000" d="m166.08,1025.9c-4.8342,2.3736-10.171,8.4745-13.074,13.593-2.8759,5.314,0.13687,6.7141,5.7227,6.5019,19.209-1.525,37.951-1.6718,55.707,1.148,11.398,0.67,16.125-1.6953,14.102-7.0779-4.8504-7.8229-8.7685-12.539-15.697-17.067l-1.2167,1.3394c-4.1836,6.3838-19.693,15.791-33.035,8.6636-5.4801,0.1969-9.5986-2.9339-12.51-7.1zm32.905-40.679c8.2257,3.3685,14.371,10.947,15.402,20.214,1.5235,13.695-8.6174,26.148-22.613,27.705-3.5329,0.3931-6.9343,0.061-10.088-0.8192,7.9911-1.499,13.595-8.8555,12.688-17.011-0.9524-8.5614-8.6764-14.744-17.236-13.792-6.5443,0.728-11.629,5.4767-13.303,11.479-0.0674-0.6062-0.13487-1.2124-0.21296-1.9144-0.98691-8.8716,2.872-17.254,9.5407-22.38-1.6124,6.6055,0.3366,10.365,5.7336,11.197,4.4198,0.3211,9.0537-2.9472,13.945-8.4835,1.7963-2.145,3.9154-4.2129,6.1444-6.1944zm-2.192-0.87964c-10.741-3.5408-15.983-1.0268-21.57,2.4367-1.4605,6.9546-1.4748,9.9711,3.8159,10.814,4.6203,0.80139,7.4784-1.9302,11.821-6.8995,1.8996-2.1528,3.2608-2.8696,5.933-6.3521z"/>
  <path id="path3052" fill="#000" d="m179.08,1001.7c-8.0971,0-14.657,6.5575-14.657,14.655,0,8.0929,6.5596,14.659,14.657,14.659,8.0929,0,14.655-6.5656,14.655-14.659,0-8.0971-6.5616-14.655-14.655-14.655zm-1.902,25.764c-5.0877,0-9.2149-4.1172-9.2149-9.2129,0-5.0794,4.1274-9.2048,9.2149-9.2048s9.2048,4.1252,9.2048,9.2048c0.002,5.0959-4.1152,9.2129-9.2048,9.2129z"/>
  <path id="path3095" d="m199.23,998.74,0.634,0.4488s-0.20126-1.3871-0.0277-2.7446l0.75554,1.1791s0.13566-1.6228,0.21041-2.997c0,0,0.30072,0.17557,0.88806,1.0175,0,0,0.10186-1.7622,0.64391-2.6653l0.72801,0.93221s-0.0619-1.3384,0.73254-2.3498l0.55737,0.82852s0.4654-0.84092,0.80935-2.4121l0.72539,0.84823s0.29506-1.2619,0.77827-2.1499l0.54577,0.768s0.0802-0.88873,0.9905-1.9724l0.48981,0.86734s0.0799-1.2062,1.1477-2.2886l0.4701,0.55491,1.0506-1.6282,0.53774,0.51617s0.23145-0.4624,1.0742-1.1899l0.31625,0.0446s1.6514-2.2293,4.3906-4.5937c0,0-2.513,4.2317-2.9414,5.9308l0.38413,0.32332s-0.45108,0.98525-1.183,2.1072c0,0,0.0261,0.20492,0.74315,0.16637,0,0-0.28825,1.1545-0.97636,1.482,0,0-0.15617,0.0404,0.30726,0.38564,0,0-0.56351,0.23103-0.70651,0.41413,0,0-0.17043,0.21364,0.90974,0.14408,0,0,0.23196,0.48987-1.2471,1.6371,0,0,0.20177,0.15907,0.76668,0.28716,0,0,0.31257,0.55349-1.092,1.8719l0.93586,0.34878s-0.17764,0.91423-1.6138,1.8597l1.0125,0.2867s-0.25724,0.8924-1.6075,1.7522c0,0,0.40761,0.4441,1.0062,0.3941,0,0,0.32937,0.4645-2.1631,1.6006,0,0,0.0652,0.1947,1.243,0.4171,0,0,0.008,0.5694-1.9471,1.5868,0,0,0.21215,0.1774,0.88635,0.3404,0,0-1.3774,0.9306-2.2764,1.7569,0,0-0.0554,0.1,1.0841,0.056,0,0-0.75808,0.9172-2.2076,1.4426,0,0-0.0457,0.1174,0.55966,0.2775,0,0-0.39526,0.5685-2.0877,1.4962,0,0,0.0261,0.2049,0.67378,0.1648,0,0-0.34981,0.4508-1.8902,1.2116,0,0,0.0742,0.171,0.39182,0.2577,0,0-5.5314,3.0493-6.7789,6.2318l-0.57019-0.2961s2.8474-4.234,0.95052-10.09l0.62863,0.2808s-0.73105-1.6511-0.59115-2.8307l0.63661,0.5327s-0.44563-1.0269-0.29845-2.9068l0.69519,0.5175s-0.37178-1.4907-0.16541-2.4333"/>
  <path id="path3115" d="m209.87,1040.2,0.25291,0.031s-0.27359-0.3697-0.43428-0.7889l0.4015,0.2233s-0.21287-0.4901-0.4047-0.8988c0,0,0.11419,0.01,0.41472,0.1561,0,0-0.24429-0.5251-0.22792-0.8703l0.35522,0.1563s-0.22581-0.3772-0.15328-0.7929l0.28979,0.1529s0.004-0.3153-0.14076-0.8229l0.34141,0.1325s-0.1109-0.4105-0.10902-0.7422l0.27703,0.1372s-0.11487-0.2694-0.0201-0.7239l0.27629,0.1745s-0.16425-0.3609-0.0238-0.8397l0.22206,0.087,0.0507-0.6337,0.2356,0.066s-0.005-0.1695,0.12561-0.5107l0.0983-0.036s0.13101-0.9008,0.55542-2.0096c0,0-0.069,1.6134,0.0711,2.1709l0.16124,0.034s0.0227,0.3548-0.0146,0.7928c0,0,0.0394,0.055,0.24063-0.067,0,0,0.096,0.3784-0.052,0.58,0,0-0.0388,0.036,0.14872,0.063,0,0-0.12686,0.1544-0.13911,0.2299,0,0-0.0161,0.088,0.2853-0.1,0,0,0.14313,0.1056-0.10613,0.6669,0,0,0.083,0.015,0.26618-0.036,0,0,0.17634,0.1114-0.0249,0.7106l0.32467-0.044s0.0906,0.2918-0.17756,0.7882l0.33715-0.074s0.0643,0.2979-0.19242,0.7562c0,0,0.1868,0.065,0.35201-0.043,0,0,0.16737,0.083-0.37656,0.7986,0,0,0.049,0.046,0.42403-0.073,0,0,0.0908,0.1633-0.3163,0.761,0,0,0.0889,0.019,0.30908-0.039,0,0-0.25366,0.4828-0.38499,0.8613,0,0-0.00051,0.037,0.32206-0.1521,0,0-0.0767,0.3828-0.41388,0.7599,0,0,0.005,0.041,0.20486-0.01,0,0-0.0259,0.2257-0.371,0.7567,0,0,0.0394,0.055,0.22018-0.058,0,0-0.031,0.1847-0.358,0.6438,0,0,0.048,0.038,0.15328,0.014,0,0-1.125,1.7405-0.99126,2.8541l-0.21077,0.01s0.16526-1.666-1.2926-3.0638l0.22532-0.016s-0.46777-0.3636-0.61053-0.7262l0.26673,0.055s-0.28832-0.2275-0.53777-0.7938l0.28128,0.042s-0.33899-0.373-0.42578-0.6776" fill="#ececec"/>
  <path id="path3117" fill="#ececec" d="m214.41,1040.5,0.25291,0.031s-0.27359-0.3697-0.43428-0.7889l0.4015,0.2233s-0.21287-0.4901-0.4047-0.8988c0,0,0.11419,0.01,0.41472,0.1561,0,0-0.24429-0.5251-0.22792-0.8703l0.35522,0.1563s-0.22581-0.3772-0.15328-0.7929l0.28979,0.1529s0.004-0.3153-0.14076-0.8229l0.34141,0.1325s-0.1109-0.4105-0.10902-0.7422l0.27703,0.1372s-0.11487-0.2694-0.0201-0.7239l0.27629,0.1745s-0.16425-0.3609-0.0238-0.8397l0.22206,0.087,0.0507-0.6337,0.2356,0.066s-0.005-0.1695,0.12561-0.5107l0.0983-0.036s0.13101-0.9008,0.55542-2.0096c0,0-0.069,1.6134,0.0711,2.1709l0.16124,0.034s0.0227,0.3548-0.0146,0.7928c0,0,0.0394,0.055,0.24063-0.067,0,0,0.096,0.3784-0.052,0.58,0,0-0.0388,0.036,0.14872,0.063,0,0-0.12686,0.1544-0.13911,0.2299,0,0-0.0161,0.088,0.2853-0.1,0,0,0.14313,0.1056-0.10613,0.6669,0,0,0.083,0.015,0.26618-0.036,0,0,0.17634,0.1114-0.0249,0.7106l0.32467-0.044s0.0906,0.2918-0.17756,0.7882l0.33715-0.074s0.0643,0.2979-0.19242,0.7562c0,0,0.1868,0.065,0.35201-0.043,0,0,0.16737,0.083-0.37656,0.7986,0,0,0.049,0.046,0.42403-0.073,0,0,0.0908,0.1633-0.3163,0.761,0,0,0.0889,0.019,0.30908-0.039,0,0-0.25366,0.4828-0.38499,0.8613,0,0-0.00051,0.037,0.32206-0.1521,0,0-0.0767,0.3828-0.41388,0.7599,0,0,0.005,0.041,0.20486-0.01,0,0-0.0259,0.2257-0.371,0.7567,0,0,0.0394,0.055,0.22018-0.058,0,0-0.031,0.1847-0.358,0.6438,0,0,0.048,0.038,0.15328,0.014,0,0-1.125,1.7405-0.99126,2.8541l-0.21077,0.01s0.16526-1.666-1.2926-3.0638l0.22532-0.016s-0.46777-0.3636-0.61053-0.7262l0.26673,0.055s-0.28832-0.2275-0.53777-0.7938l0.28128,0.042s-0.33899-0.373-0.42578-0.6776"/>
  <path id="path3119" d="m218.95,1040.8,0.25291,0.031s-0.27359-0.3697-0.43428-0.7889l0.4015,0.2233s-0.21287-0.4901-0.4047-0.8988c0,0,0.11419,0.01,0.41472,0.1561,0,0-0.24429-0.5251-0.22792-0.8703l0.35522,0.1563s-0.22581-0.3772-0.15328-0.7929l0.28979,0.1529s0.004-0.3153-0.14076-0.8229l0.34141,0.1325s-0.1109-0.4105-0.10902-0.7422l0.27703,0.1372s-0.11487-0.2694-0.0201-0.7239l0.27629,0.1745s-0.16425-0.3609-0.0238-0.8397l0.22206,0.087,0.0507-0.6337,0.2356,0.066s-0.005-0.1695,0.12561-0.5107l0.0983-0.036s0.13101-0.9008,0.55542-2.0096c0,0-0.069,1.6134,0.0711,2.1709l0.16124,0.034s0.0227,0.3548-0.0146,0.7928c0,0,0.0394,0.055,0.24063-0.067,0,0,0.096,0.3784-0.052,0.58,0,0-0.0388,0.036,0.14872,0.063,0,0-0.12686,0.1544-0.13911,0.2299,0,0-0.0161,0.088,0.2853-0.1,0,0,0.14313,0.1056-0.10613,0.6669,0,0,0.083,0.015,0.26618-0.036,0,0,0.17634,0.1114-0.0249,0.7106l0.32467-0.044s0.0906,0.2918-0.17756,0.7882l0.33715-0.074s0.0643,0.2979-0.19242,0.7562c0,0,0.1868,0.065,0.35201-0.043,0,0,0.16737,0.083-0.37656,0.7986,0,0,0.049,0.046,0.42403-0.073,0,0,0.0908,0.1633-0.3163,0.761,0,0,0.0889,0.019,0.30908-0.039,0,0-0.25366,0.4828-0.38499,0.8613,0,0-0.00051,0.037,0.32206-0.1521,0,0-0.0767,0.3828-0.41388,0.7599,0,0,0.005,0.041,0.20486-0.01,0,0-0.0259,0.2257-0.371,0.7567,0,0,0.0394,0.055,0.22018-0.058,0,0-0.031,0.1847-0.358,0.6438,0,0,0.048,0.038,0.15328,0.014,0,0-1.125,1.7405-0.99126,2.8541l-0.21077,0.01s0.16526-1.666-1.2926-3.0638l0.22532-0.016s-0.46777-0.3636-0.61053-0.7262l0.26673,0.055s-0.28832-0.2275-0.53777-0.7938l0.28128,0.042s-0.33899-0.373-0.42578-0.6776" fill="#ececec"/>
 </g>
</svg>
