<?xml version="1.0" encoding="UTF-8" standalone="no"?>
<!-- Created with Inkscape (http://www.inkscape.org/) -->

<svg
   xmlns:dc="http://purl.org/dc/elements/1.1/"
   xmlns:cc="http://creativecommons.org/ns#"
   xmlns:rdf="http://www.w3.org/1999/02/22-rdf-syntax-ns#"
   xmlns:svg="http://www.w3.org/2000/svg"
   xmlns="http://www.w3.org/2000/svg"
   version="1.2"
   width="520"
   height="196"
   id="svg2993">
  <defs
     id="defs2995" />
  <metadata
     id="metadata2998">
    <rdf:RDF>
      <cc:Work
         rdf:about="">
        <dc:format>image/svg+xml</dc:format>
        <dc:type
           rdf:resource="http://purl.org/dc/dcmitype/StillImage" />
        <dc:title></dc:title>
      </cc:Work>
    </rdf:RDF>
  </metadata>
  <g
     transform="translate(0,106)"
     id="layer1">
    <path
       d="M 161.8125,1.34375 74.6875,61.03125 7.34375,107.1875 72.5,146.96875 l 74.84375,43.6875 -1.03125,-94.3125 15.5,-95 z"
       transform="translate(0,-106)"
       id="rect3005"
       style="fill:#000000" />
    <path
       d="m 147.36109,-76.666672 317.94444,0 c 8.51006,0 15.36111,6.851055 15.36111,15.36111 l 0,74.611094 c 0,8.510054 -6.85105,15.361109 -15.36111,15.361109 l -317.94444,0 c -8.51005,0 -15.36111,-6.851055 -15.36111,-15.361109 l 0,-74.611094 c 0,-8.510055 6.85106,-15.36111 15.36111,-15.36111 z"
       id="rect3081"
       style="fill:#000000" />
    <g
       transform="matrix(1.3409052,0,0,1.3409052,-58.828014,-147.08805)"
       id="flowRoot3083"
       style="font-size:40px;font-style:normal;font-weight:normal;line-height:125%;letter-spacing:0px;word-spacing:0px;fill:#ffffff;fill-opacity:1;stroke:none;font-family:Sans">
      <path
         d="m 123.58375,119.32466 c -0.89602,-2.304 -1.85602,-4.928 -2.88,-7.872 -0.99202,-2.97599 -1.90402,-6.06399 -2.736,-9.264 -0.83202,3.20001 -1.74402,6.28801 -2.736,9.264 -0.99201,2.944 -1.93601,5.568 -2.832,7.872 l -3.888,0 c -1.47201,-3.296 -2.91201,-7.056 -4.32,-11.28 -1.408,-4.22399 -2.736,-8.783983 -3.984,-13.680003 l 4.8,0 c 0.31999,1.504024 0.70399,3.136022 1.152,4.896 0.44799,1.760023 0.91199,3.520013 1.392,5.280003 0.51199,1.76001 1.03999,3.45601 1.584,5.088 0.54399,1.63201 1.05599,3.056 1.536,4.272 0.54399,-1.504 1.07199,-3.08799 1.584,-4.752 0.54399,-1.69599 1.05599,-3.39199 1.536,-5.088 0.47999,-1.72799 0.92798,-3.40798 1.344,-5.040003 0.44798,-1.663978 0.83198,-3.215976 1.152,-4.656 l 3.696,0 c 0.28798,1.440024 0.63998,2.992022 1.056,4.656 0.41598,1.632023 0.86398,3.312013 1.344,5.040003 0.47998,1.69601 0.97598,3.39201 1.488,5.088 0.54397,1.66401 1.08797,3.248 1.632,4.752 0.47997,-1.216 0.97597,-2.63999 1.488,-4.272 0.54397,-1.63199 1.07197,-3.32799 1.584,-5.088 0.51197,-1.75999 0.99197,-3.51998 1.44,-5.280003 0.44797,-1.759978 0.83197,-3.391976 1.152,-4.896 l 4.608,0 c -1.24804,4.89602 -2.57603,9.456013 -3.984,13.680003 -1.40803,4.224 -2.84803,7.984 -4.32,11.28 l -3.888,0"
         id="path3272"
         style="font-size:48px;font-variant:normal;font-stretch:normal;font-family:Ubuntu;-inkscape-font-specification:Ubuntu" />
      <path
         d="m 140.49625,119.32466 0,-36.480003 4.464,-0.768 0,12.768 c 0.83199,-0.319975 1.71199,-0.559975 2.64,-0.72 0.95999,-0.191974 1.90399,-0.287974 2.832,-0.288 1.98398,2.6e-5 3.63198,0.288026 4.944,0.864 1.31198,0.544024 2.35198,1.328024 3.12,2.352 0.79998,0.992022 1.35998,2.19202 1.68,3.600003 0.31998,1.40801 0.47998,2.96001 0.48,4.656 l 0,14.016 -4.464,0 0,-13.056 c -2e-5,-1.53599 -0.11202,-2.84799 -0.336,-3.936 -0.19202,-1.08798 -0.52802,-1.96798 -1.008,-2.640003 -0.48002,-0.671979 -1.12002,-1.151979 -1.92,-1.44 -0.80002,-0.319978 -1.79201,-0.479978 -2.976,-0.48 -0.48001,2.2e-5 -0.97601,0.03202 -1.488,0.096 -0.51201,0.06402 -1.00801,0.144022 -1.488,0.24 -0.44801,0.06402 -0.86401,0.144021 -1.248,0.24 -0.35201,0.09602 -0.60801,0.176021 -0.768,0.24 l 0,20.736003 -4.464,0"
         id="path3274"
         style="font-size:48px;font-variant:normal;font-stretch:normal;font-family:Ubuntu;-inkscape-font-specification:Ubuntu" />
      <path
         d="m 189.90325,106.84466 c -3e-5,1.98401 -0.28803,3.77601 -0.864,5.376 -0.57602,1.6 -1.39202,2.976 -2.448,4.128 -1.02402,1.152 -2.25602,2.048 -3.696,2.688 -1.44002,0.608 -3.00802,0.912 -4.704,0.912 -1.69601,0 -3.26401,-0.304 -4.704,-0.912 -1.44001,-0.64 -2.68801,-1.536 -3.744,-2.688 -1.024,-1.152 -1.824,-2.528 -2.4,-4.128 -0.576,-1.59999 -0.864,-3.39199 -0.864,-5.376 0,-1.95199 0.288,-3.72799 0.864,-5.328 0.576,-1.631983 1.376,-3.023982 2.4,-4.176003 1.05599,-1.151977 2.30399,-2.031976 3.744,-2.64 1.43999,-0.639974 3.00799,-0.959974 4.704,-0.96 1.69598,2.6e-5 3.26398,0.320026 4.704,0.96 1.43998,0.608024 2.67198,1.488023 3.696,2.64 1.05598,1.152021 1.87198,2.54402 2.448,4.176003 0.57597,1.60001 0.86397,3.37601 0.864,5.328 m -4.656,0 c -2e-5,-2.81599 -0.64002,-5.03999 -1.92,-6.672 -1.24802,-1.663982 -2.96002,-2.495981 -5.136,-2.496003 -2.17601,2.2e-5 -3.90401,0.832021 -5.184,2.496003 -1.24801,1.63201 -1.87201,3.85601 -1.872,6.672 -1e-5,2.81601 0.62399,5.056 1.872,6.72 1.27999,1.632 3.00799,2.448 5.184,2.448 2.17598,0 3.88798,-0.816 5.136,-2.448 1.27998,-1.664 1.91998,-3.90399 1.92,-6.72"
         id="path3276"
         style="font-size:48px;font-variant:normal;font-stretch:normal;font-family:Ubuntu;-inkscape-font-specification:Ubuntu" />
      <path
         d="m 198.95575,82.844657 0,2.4 c -1e-5,1.568033 -0.096,3.216031 -0.288,4.944 -0.19201,1.696028 -0.43201,3.392026 -0.72,5.088 l -2.64,0 c -0.288,-1.695974 -0.528,-3.391972 -0.72,-5.088 -0.192,-1.727969 -0.288,-3.391967 -0.288,-4.992 l 0,-2.352 4.656,0"
         id="path3278"
         style="font-size:48px;font-variant:normal;font-stretch:normal;font-family:Ubuntu;-inkscape-font-specification:Ubuntu" />
      <path
         d="m 212.023,116.10866 c 1.82399,0 3.16799,-0.24 4.032,-0.72 0.89599,-0.48 1.34398,-1.248 1.344,-2.304 -2e-5,-1.088 -0.43201,-1.95199 -1.296,-2.592 -0.86401,-0.63999 -2.28801,-1.35999 -4.272,-2.16 -0.96001,-0.38399 -1.88801,-0.76799 -2.784,-1.152 -0.86401,-0.41599 -1.61601,-0.89599 -2.256,-1.44 -0.64,-0.54399 -1.152,-1.19999 -1.536,-1.968 -0.384,-0.76799 -0.576,-1.71199 -0.576,-2.832 0,-2.207982 0.816,-3.95198 2.448,-5.232003 1.63199,-1.311975 3.85599,-1.967974 6.672,-1.968 0.70399,2.6e-5 1.40799,0.04803 2.112,0.144 0.70399,0.06403 1.35999,0.160026 1.968,0.288 0.60798,0.09602 1.13598,0.208025 1.584,0.336 0.47998,0.128025 0.84798,0.240025 1.104,0.336 l -0.816,3.84 c -0.48002,-0.255979 -1.23202,-0.511979 -2.256,-0.768 -1.02401,-0.287978 -2.25601,-0.431978 -3.696,-0.432 -1.24801,2.2e-5 -2.33601,0.256022 -3.264,0.768 -0.92801,0.480021 -1.39201,1.24802 -1.392,2.304003 -1e-5,0.54402 0.096,1.02402 0.288,1.44 0.22399,0.41601 0.54399,0.80001 0.96,1.152 0.44799,0.32001 0.99199,0.62401 1.632,0.912 0.63999,0.28801 1.40799,0.59201 2.304,0.912 1.18399,0.44801 2.23999,0.89601 3.168,1.344 0.92798,0.41601 1.71198,0.91201 2.352,1.488 0.67198,0.57601 1.18398,1.28001 1.536,2.112 0.35198,0.80001 0.52798,1.792 0.528,2.976 -2e-5,2.304 -0.86402,4.048 -2.592,5.232 -1.69602,1.184 -4.12801,1.776 -7.296,1.776 -2.20801,0 -3.93601,-0.192 -5.184,-0.576 -1.248,-0.352 -2.096,-0.624 -2.544,-0.816 l 0.816,-3.84 c 0.512,0.192 1.328,0.48 2.448,0.864 1.11999,0.384 2.60799,0.576 4.464,0.576"
         id="path3280"
         style="font-size:48px;font-variant:normal;font-stretch:normal;font-family:Ubuntu;-inkscape-font-specification:Ubuntu" />
      <path
         d="m 238.6525,95.084657 c 1.024,-0.255975 2.36799,-0.527975 4.032,-0.816 1.69599,-0.287974 3.64799,-0.431974 5.856,-0.432 1.59998,2.6e-5 2.94398,0.224026 4.032,0.672 1.08798,0.416025 1.99998,1.040024 2.736,1.872 0.22398,-0.159977 0.57598,-0.383976 1.056,-0.672 0.47998,-0.287976 1.07198,-0.559976 1.776,-0.816 0.70398,-0.287975 1.48798,-0.527975 2.352,-0.72 0.86397,-0.223974 1.79197,-0.335974 2.784,-0.336 1.91997,2.6e-5 3.48797,0.288026 4.704,0.864 1.21597,0.544024 2.15996,1.328024 2.832,2.352 0.70396,1.024022 1.16796,2.24002 1.392,3.648003 0.25596,1.40801 0.38396,2.94401 0.384,4.608 l 0,14.016 -4.464,0 0,-13.056 c -3e-5,-1.47199 -0.08,-2.73599 -0.24,-3.792 -0.12803,-1.05598 -0.40003,-1.93598 -0.816,-2.640003 -0.38403,-0.703979 -0.92803,-1.215979 -1.632,-1.536 -0.67203,-0.351978 -1.55203,-0.527978 -2.64,-0.528 -1.50403,2.2e-5 -2.75203,0.208022 -3.744,0.624 -0.96002,0.384021 -1.61602,0.736021 -1.968,1.056 0.25598,0.832023 0.44798,1.744023 0.576,2.736003 0.12798,0.99201 0.19198,2.03201 0.192,3.12 l 0,14.016 -4.464,0 0,-13.056 c -2e-5,-1.47199 -0.08,-2.73599 -0.24,-3.792 -0.16002,-1.05598 -0.44802,-1.93598 -0.864,-2.640003 -0.38402,-0.703979 -0.92802,-1.215979 -1.632,-1.536 -0.67202,-0.351978 -1.53601,-0.527978 -2.592,-0.528 -0.44801,2.2e-5 -0.92801,0.01602 -1.44,0.048 -0.51201,0.03202 -1.00801,0.08002 -1.488,0.144 -0.44801,0.03202 -0.86401,0.08002 -1.248,0.144 -0.38401,0.06402 -0.64001,0.112021 -0.768,0.144 l 0,21.072003 -4.464,0 0,-24.240003"
         id="path3282"
         style="font-size:48px;font-variant:normal;font-stretch:normal;font-family:Ubuntu;-inkscape-font-specification:Ubuntu" />
      <path
         d="m 276.2245,123.98066 c 0.352,0.15999 0.8,0.30399 1.344,0.432 0.576,0.15999 1.136,0.23999 1.68,0.24 1.75999,-1e-5 3.13599,-0.40001 4.128,-1.2 0.99199,-0.76801 1.88799,-2.032 2.688,-3.792 -2.01601,-3.84 -3.90401,-7.904 -5.664,-12.192 -1.728,-4.31999 -3.168,-8.687982 -4.32,-13.104003 l 4.8,0 c 0.35199,1.440024 0.76799,2.992022 1.248,4.656 0.51199,1.664023 1.07199,3.376013 1.68,5.136003 0.60799,1.76001 1.26399,3.52001 1.968,5.28 0.70399,1.76001 1.43999,3.456 2.208,5.088 1.21599,-3.35999 2.27199,-6.68799 3.168,-9.984 0.89598,-3.29598 1.74398,-6.687981 2.544,-10.176003 l 4.608,0 c -1.15202,4.704021 -2.43202,9.232013 -3.84,13.584003 -1.40802,4.32 -2.92802,8.368 -4.56,12.144 -0.64001,1.44 -1.31201,2.67199 -2.016,3.696 -0.67201,1.05599 -1.42401,1.91999 -2.256,2.592 -0.83201,0.67199 -1.77601,1.16799 -2.832,1.488 -1.02401,0.31999 -2.19201,0.47999 -3.504,0.48 -0.352,-1e-5 -0.72,-0.032 -1.104,-0.096 -0.384,-0.032 -0.768,-0.096 -1.152,-0.192 -0.352,-0.064 -0.688,-0.14401 -1.008,-0.24 -0.288,-0.096 -0.496,-0.17601 -0.624,-0.24 l 0.816,-3.6"
         id="path3284"
         style="font-size:48px;font-variant:normal;font-stretch:normal;font-family:Ubuntu;-inkscape-font-specification:Ubuntu" />
      <path
         d="m 330.5875,105.40466 c 0.51198,0.64001 1.15198,1.48801 1.92,2.544 0.79998,1.02401 1.61598,2.17601 2.448,3.456 0.83197,1.248 1.64797,2.56 2.448,3.936 0.83197,1.376 1.53597,2.704 2.112,3.984 l -5.088,0 c -0.64002,-1.216 -1.34402,-2.448 -2.112,-3.696 -0.73602,-1.248 -1.48802,-2.432 -2.256,-3.552 -0.76802,-1.15199 -1.53602,-2.22399 -2.304,-3.216 -0.73602,-0.99199 -1.40802,-1.85599 -2.016,-2.592 -0.41602,0.032 -0.84801,0.048 -1.296,0.048 -0.41601,1e-5 -0.84801,1e-5 -1.296,0 l -4.176,0 0,13.008 -4.656,0 0,-32.784003 c 1.31199,-0.319967 2.76799,-0.527966 4.368,-0.624 1.63199,-0.127966 3.11999,-0.191966 4.464,-0.192 4.67198,3.4e-5 8.22398,0.880033 10.656,2.64 2.46397,1.76003 3.69597,4.384027 3.696,7.872 -3e-5,2.208021 -0.59203,4.096023 -1.776,5.664003 -1.15202,1.56801 -2.86402,2.73601 -5.136,3.504 m -7.056,-15.600003 c -1.98401,3e-5 -3.50401,0.04803 -4.56,0.144 l 0,12.528003 3.312,0 c 1.59999,1e-5 3.03998,-0.08 4.32,-0.24 1.27998,-0.15999 2.35198,-0.46399 3.216,-0.912 0.89598,-0.44798 1.58398,-1.07198 2.064,-1.872003 0.47998,-0.831979 0.71998,-1.919978 0.72,-3.264 -2e-5,-1.247975 -0.24002,-2.287974 -0.72,-3.12 -0.48002,-0.831973 -1.13602,-1.487972 -1.968,-1.968 -0.80002,-0.479971 -1.76002,-0.815971 -2.88,-1.008 -1.08802,-0.19197 -2.25601,-0.28797 -3.504,-0.288"
         id="path3286"
         style="font-size:48px;font-variant:normal;font-stretch:normal;font-family:Ubuntu;-inkscape-font-specification:Ubuntu" />
      <path
         d="m 342.823,106.89266 c 0,-2.20799 0.32,-4.12799 0.96,-5.76 0.64,-1.663983 1.488,-3.039981 2.544,-4.128003 1.05599,-1.087976 2.27199,-1.903975 3.648,-2.448 1.37599,-0.543974 2.78399,-0.815974 4.224,-0.816 3.35998,2.6e-5 5.93598,1.056025 7.728,3.168 1.79198,2.080021 2.68798,5.264013 2.688,9.552003 -2e-5,0.19201 -2e-5,0.44801 0,0.768 -2e-5,0.28801 -0.016,0.56001 -0.048,0.816 l -17.088,0 c 0.19199,2.59201 0.94399,4.56 2.256,5.904 1.31199,1.344 3.35999,2.016 6.144,2.016 1.56798,0 2.87998,-0.128 3.936,-0.384 1.08798,-0.288 1.90398,-0.56 2.448,-0.816 l 0.624,3.744 c -0.54402,0.288 -1.50402,0.592 -2.88,0.912 -1.34402,0.32 -2.88002,0.48 -4.608,0.48 -2.17601,0 -4.06401,-0.32 -5.664,-0.96 -1.56801,-0.672 -2.86401,-1.584 -3.888,-2.736 -1.024,-1.152 -1.792,-2.512 -2.304,-4.08 -0.48,-1.59999 -0.72,-3.34399 -0.72,-5.232 m 17.136,-2.448 c 0.032,-2.01599 -0.48002,-3.66398 -1.536,-4.944003 -1.02402,-1.311979 -2.44802,-1.967978 -4.272,-1.968 -1.02401,2.2e-5 -1.93601,0.208022 -2.736,0.624 -0.76801,0.384021 -1.42401,0.896021 -1.968,1.536 -0.54401,0.640023 -0.97601,1.376023 -1.296,2.208003 -0.28801,0.83201 -0.48001,1.68001 -0.576,2.544 l 12.384,0"
         id="path3288"
         style="font-size:48px;font-variant:normal;font-stretch:normal;font-family:Ubuntu;-inkscape-font-specification:Ubuntu" />
      <path
         d="m 388.3555,106.89266 c -2e-5,-2.91199 -0.72002,-5.15199 -2.16,-6.72 -1.44002,-1.567982 -3.36002,-2.351981 -5.76,-2.352003 -1.34401,2.2e-5 -2.40001,0.04802 -3.168,0.144 -0.73601,0.09602 -1.32801,0.208021 -1.776,0.336 l 0,15.744003 c 0.54399,0.448 1.32799,0.88 2.352,1.296 1.02399,0.416 2.14399,0.624 3.36,0.624 1.27998,0 2.36798,-0.224 3.264,-0.672 0.92798,-0.48 1.67998,-1.12 2.256,-1.92 0.57598,-0.832 0.99198,-1.79199 1.248,-2.88 0.25598,-1.11999 0.38398,-2.31999 0.384,-3.6 m 4.656,0 c -3e-5,1.88801 -0.25603,3.63201 -0.768,5.232 -0.48002,1.6 -1.20002,2.976 -2.16,4.128 -0.96002,1.152 -2.14402,2.048 -3.552,2.688 -1.37602,0.64 -2.96002,0.96 -4.752,0.96 -1.44001,0 -2.72001,-0.192 -3.84,-0.576 -1.08801,-0.384 -1.90401,-0.752 -2.448,-1.104 l 0,9.984 -4.464,0 0,-33.072003 c 1.056,-0.255975 2.36799,-0.527975 3.936,-0.816 1.59999,-0.319974 3.43999,-0.479974 5.52,-0.48 1.91998,2.6e-5 3.64798,0.304025 5.184,0.912 1.53598,0.608024 2.84798,1.472023 3.936,2.592 1.08798,1.120021 1.91998,2.49602 2.496,4.128003 0.60797,1.60001 0.91197,3.40801 0.912,5.424"
         id="path3290"
         style="font-size:48px;font-variant:normal;font-stretch:normal;font-family:Ubuntu;-inkscape-font-specification:Ubuntu" />
    </g>
    <g
       transform="translate(0,-106)"
       id="flowRoot3095"
       style="font-size:40px;font-style:normal;font-variant:normal;font-weight:normal;font-stretch:normal;line-height:125%;letter-spacing:0px;word-spacing:0px;fill:#f9f9f9;fill-opacity:1;stroke:none;font-family:Ubuntu;-inkscape-font-specification:Ubuntu" />
    <g
       transform="matrix(0.82764429,0,0,1.1613744,77.596763,-103.09901)"
       id="flowRoot3106"
       style="font-size:40px;font-style:normal;font-variant:normal;font-weight:normal;font-stretch:normal;line-height:125%;letter-spacing:0px;word-spacing:0px;fill:#000000;fill-opacity:1;stroke:none;font-family:Ubuntu;-inkscape-font-specification:Ubuntu">
      <path
         d="m 97.78375,150.55701 0,-27.72 16.72,0 0,3.32 -12.84,0 0,8.36 11.4,0 0,3.28 -11.4,0 0,12.76 -3.88,0"
         id="path3294" />
      <path
         d="m 125.26812,150.95701 c -2.29334,-0.0533 -3.92,-0.54667 -4.87999,-1.48 -0.96001,-0.93334 -1.44001,-2.38667 -1.44,-4.36 l 0,-24.96 3.72,-0.64 0,25 c -1e-5,0.61333 0.0533,1.12 0.16,1.52 0.10665,0.4 0.27999,0.72 0.51999,0.96 0.24,0.24 0.56,0.42667 0.96001,0.56 0.39999,0.10667 0.89332,0.2 1.48,0.28 l -0.52001,3.12"
         id="path3296" />
      <path
         d="m 148.32562,140.15701 c -2e-5,1.65334 -0.24002,3.14667 -0.72,4.48 -0.48002,1.33333 -1.16001,2.48 -2.04,3.44 -0.85335,0.96 -1.88001,1.70666 -3.08,2.24 -1.20001,0.50666 -2.50667,0.76 -3.92,0.76 -1.41334,0 -2.72,-0.25334 -3.92,-0.76 -1.2,-0.53334 -2.24,-1.28 -3.12,-2.24 -0.85333,-0.96 -1.52,-2.10667 -2,-3.44 -0.48,-1.33333 -0.72,-2.82666 -0.72,-4.48 0,-1.62666 0.24,-3.10666 0.72,-4.44 0.48,-1.35999 1.14667,-2.51999 2,-3.48 0.88,-0.95998 1.92,-1.69332 3.12,-2.2 1.2,-0.53332 2.50666,-0.79998 3.92,-0.8 1.41333,2e-5 2.71999,0.26668 3.92,0.8 1.19999,0.50668 2.22665,1.24002 3.08,2.2 0.87999,0.96001 1.55998,2.12001 2.04,3.48 0.47998,1.33334 0.71998,2.81334 0.72,4.44 m -3.88,0 c -1e-5,-2.34666 -0.53335,-4.19999 -1.6,-5.56 -1.04001,-1.38665 -2.46668,-2.07999 -4.28,-2.08 -1.81334,1e-5 -3.25334,0.69335 -4.32,2.08 -1.04,1.36001 -1.56,3.21334 -1.56,5.56 0,2.34667 0.52,4.21334 1.56,5.6 1.06666,1.36 2.50666,2.04 4.32,2.04 1.81332,0 3.23999,-0.68 4.28,-2.04 1.06665,-1.38666 1.59999,-3.25333 1.6,-5.6"
         id="path3298" />
      <path
         d="m 161.23937,129.31701 c 0.31999,2e-5 0.67999,0.0267 1.08,0.08 0.42666,0.0267 0.83999,0.08 1.24,0.16 0.39999,0.0533 0.75999,0.12002 1.08,0.2 0.34666,0.0533 0.59999,0.10668 0.76,0.16 l -0.64,3.24 c -0.29334,-0.10665 -0.78668,-0.22665 -1.48,-0.36 -0.66667,-0.15999 -1.53334,-0.23999 -2.6,-0.24 -0.69334,1e-5 -1.38667,0.08 -2.08,0.24 -0.66667,0.13335 -1.10667,0.22668 -1.32,0.28 l 0,17.48 -3.72,0 0,-19.92 c 0.88,-0.31998 1.97333,-0.61332 3.28,-0.88 1.30666,-0.29332 2.77333,-0.43998 4.4,-0.44"
         id="path3300" />
      <path
         d="m 172.74812,150.55701 -3.72,0 0,-20.8 3.72,0 0,20.8 m -1.88,-24.56 c -0.66667,2e-5 -1.24,-0.21331 -1.72,-0.64 -0.45333,-0.45331 -0.68,-1.05331 -0.68,-1.8 0,-0.74664 0.22667,-1.33331 0.68,-1.76 0.48,-0.45331 1.05333,-0.67997 1.72,-0.68 0.66667,3e-5 1.22667,0.22669 1.68,0.68 0.48,0.42669 0.72,1.01336 0.72,1.76 0,0.74669 -0.24,1.34669 -0.72,1.8 -0.45333,0.42669 -1.01333,0.64002 -1.68,0.64"
         id="path3302" />
      <path
         d="m 192.62437,134.15701 c -0.45334,-0.37332 -1.10668,-0.73332 -1.96,-1.08 -0.85334,-0.34665 -1.78667,-0.51999 -2.8,-0.52 -1.06667,1e-5 -1.98667,0.20001 -2.76,0.6 -0.74667,0.37335 -1.36,0.90668 -1.84,1.6 -0.48,0.66668 -0.82667,1.46668 -1.04,2.4 -0.21333,0.93334 -0.32,1.93334 -0.32,3 0,2.42667 0.6,4.30667 1.8,5.64 1.2,1.30667 2.79999,1.96 4.8,1.96 1.01332,0 1.85332,-0.04 2.52,-0.12 0.69332,-0.10667 1.22666,-0.21333 1.6,-0.32 l 0,-13.16 m 0,-14 3.72001,-0.64 0,30.44 c -0.85336,0.24 -1.94669,0.48 -3.28001,0.72 -1.33334,0.24 -2.86668,0.36 -4.6,0.36 -1.60001,0 -3.04,-0.25334 -4.32,-0.76 -1.28,-0.50667 -2.37333,-1.22667 -3.28,-2.16 -0.90667,-0.93333 -1.61333,-2.06667 -2.12,-3.4 -0.48,-1.36 -0.72,-2.88 -0.72,-4.56 0,-1.59999 0.2,-3.06666 0.6,-4.4 0.42667,-1.33332 1.04,-2.47999 1.84,-3.44 0.8,-0.95998 1.77333,-1.70665 2.92,-2.24 1.17333,-0.53332 2.50666,-0.79998 4,-0.8 1.19999,2e-5 2.25332,0.16002 3.16,0.48 0.93332,0.32002 1.62666,0.62668 2.08,0.92 l 0,-10.52"
         id="path3304" />
      <path
         d="m 209.81812,147.87701 c 0.87999,0 1.65333,-0.0133 2.32,-0.04 0.69333,-0.0533 1.26666,-0.13333 1.72,-0.24 l 0,-6.2 c -0.26668,-0.13333 -0.70668,-0.23999 -1.32,-0.32 -0.58667,-0.10666 -1.30667,-0.15999 -2.16,-0.16 -0.56001,1e-5 -1.16,0.04 -1.8,0.12 -0.61334,0.08 -1.18667,0.25334 -1.72,0.52 -0.50667,0.24 -0.93333,0.58667 -1.28,1.04 -0.34667,0.42667 -0.52,1 -0.52,1.72 0,1.33333 0.42667,2.26667 1.28,2.8 0.85333,0.50667 2.01333,0.76 3.48,0.76 m -0.32,-18.64 c 1.49333,2e-5 2.74666,0.20002 3.76,0.6 1.03999,0.37335 1.86666,0.92002 2.48,1.64 0.63999,0.69335 1.09332,1.53335 1.36,2.52 0.26665,0.96001 0.39999,2.02668 0.40001,3.2 l 0,13 c -0.32002,0.0533 -0.77336,0.13333 -1.36001,0.24 -0.56001,0.08 -1.20001,0.16 -1.92,0.24 -0.72001,0.08 -1.50667,0.14666 -2.36,0.2 -0.82667,0.08 -1.65334,0.12 -2.48,0.12 -1.17334,0 -2.25334,-0.12 -3.24,-0.36 -0.98667,-0.24 -1.84,-0.61334 -2.56,-1.12 -0.72,-0.53334 -1.28,-1.22667 -1.68,-2.08 -0.4,-0.85333 -0.6,-1.88 -0.6,-3.08 0,-1.14666 0.22667,-2.13333 0.68,-2.96 0.48,-0.82666 1.12,-1.49333 1.92,-2 0.8,-0.50666 1.73333,-0.87999 2.8,-1.12 1.06666,-0.23999 2.18666,-0.35999 3.36,-0.36 0.37333,1e-5 0.75999,0.0267 1.16,0.08 0.39999,0.0267 0.77333,0.08 1.12,0.16 0.37333,0.0533 0.69332,0.10668 0.96,0.16 0.26666,0.0533 0.45332,0.0933 0.56,0.12 l 0,-1.04 c -1e-5,-0.61332 -0.0667,-1.21332 -0.2,-1.8 -0.13334,-0.61332 -0.37334,-1.14665 -0.71999,-1.6 -0.34668,-0.47999 -0.82668,-0.85332 -1.44001,-1.12 -0.58667,-0.29332 -1.36001,-0.43999 -2.32,-0.44 -1.22667,1e-5 -2.30667,0.0934 -3.23999,0.28 -0.90668,0.16001 -1.58668,0.33335 -2.04001,0.52 l -0.44,-3.08 c 0.48,-0.21332 1.28,-0.41332 2.4,-0.6 1.12,-0.21332 2.33333,-0.31998 3.64,-0.32"
         id="path3306" />
      <path
         d="m 239.09625,150.95701 c -2.29334,-0.0533 -3.92001,-0.54667 -4.88,-1.48 -0.96,-0.93334 -1.44,-2.38667 -1.44,-4.36 l 0,-24.96 3.72,-0.64 0,25 c -1e-5,0.61333 0.0533,1.12 0.16,1.52 0.10666,0.4 0.27999,0.72 0.52,0.96 0.23999,0.24 0.55999,0.42667 0.96,0.56 0.39999,0.10667 0.89332,0.2 1.48,0.28 l -0.52,3.12"
         id="path3308" />
      <path
         d="m 262.15375,140.15701 c -2e-5,1.65334 -0.24002,3.14667 -0.72,4.48 -0.48002,1.33333 -1.16002,2.48 -2.04,3.44 -0.85335,0.96 -1.88002,1.70666 -3.08,2.24 -1.20001,0.50666 -2.50668,0.76 -3.92,0.76 -1.41334,0 -2.72001,-0.25334 -3.92,-0.76 -1.20001,-0.53334 -2.24001,-1.28 -3.12,-2.24 -0.85334,-0.96 -1.52,-2.10667 -2,-3.44 -0.48,-1.33333 -0.72,-2.82666 -0.72,-4.48 0,-1.62666 0.24,-3.10666 0.72,-4.44 0.48,-1.35999 1.14666,-2.51999 2,-3.48 0.87999,-0.95998 1.91999,-1.69332 3.12,-2.2 1.19999,-0.53332 2.50666,-0.79998 3.92,-0.8 1.41332,2e-5 2.71999,0.26668 3.92,0.8 1.19998,0.50668 2.22665,1.24002 3.08,2.2 0.87998,0.96001 1.55998,2.12001 2.04,3.48 0.47998,1.33334 0.71998,2.81334 0.72,4.44 m -3.88,0 c -2e-5,-2.34666 -0.53335,-4.19999 -1.6,-5.56 -1.04002,-1.38665 -2.46668,-2.07999 -4.28,-2.08 -1.81334,1e-5 -3.25334,0.69335 -4.32,2.08 -1.04001,1.36001 -1.56001,3.21334 -1.56,5.56 -10e-6,2.34667 0.51999,4.21334 1.56,5.6 1.06666,1.36 2.50666,2.04 4.32,2.04 1.81332,0 3.23998,-0.68 4.28,-2.04 1.06665,-1.38666 1.59998,-3.25333 1.6,-5.6"
         id="path3310" />
      <path
         d="m 285.7475,140.15701 c -2e-5,1.65334 -0.24002,3.14667 -0.72,4.48 -0.48002,1.33333 -1.16002,2.48 -2.04,3.44 -0.85335,0.96 -1.88002,1.70666 -3.08,2.24 -1.20001,0.50666 -2.50668,0.76 -3.92,0.76 -1.41334,0 -2.72001,-0.25334 -3.92,-0.76 -1.20001,-0.53334 -2.24001,-1.28 -3.12,-2.24 -0.85334,-0.96 -1.52,-2.10667 -2,-3.44 -0.48,-1.33333 -0.72,-2.82666 -0.72,-4.48 0,-1.62666 0.24,-3.10666 0.72,-4.44 0.48,-1.35999 1.14666,-2.51999 2,-3.48 0.87999,-0.95998 1.91999,-1.69332 3.12,-2.2 1.19999,-0.53332 2.50666,-0.79998 3.92,-0.8 1.41332,2e-5 2.71999,0.26668 3.92,0.8 1.19998,0.50668 2.22665,1.24002 3.08,2.2 0.87998,0.96001 1.55998,2.12001 2.04,3.48 0.47998,1.33334 0.71998,2.81334 0.72,4.44 m -3.88,0 c -2e-5,-2.34666 -0.53335,-4.19999 -1.6,-5.56 -1.04002,-1.38665 -2.46668,-2.07999 -4.28,-2.08 -1.81334,1e-5 -3.25334,0.69335 -4.32,2.08 -1.04001,1.36001 -1.56001,3.21334 -1.56,5.56 -1e-5,2.34667 0.51999,4.21334 1.56,5.6 1.06666,1.36 2.50666,2.04 4.32,2.04 1.81332,0 3.23998,-0.68 4.28,-2.04 1.06665,-1.38666 1.59998,-3.25333 1.6,-5.6"
         id="path3312" />
      <path
         d="m 298.50125,139.11701 c 0.79999,0.61334 1.63999,1.37334 2.52,2.28 0.90665,0.90667 1.78665,1.89334 2.64,2.96 0.87998,1.04 1.70665,2.10667 2.48,3.2 0.77331,1.06666 1.42665,2.06666 1.96,3 l -4.36,0 c -0.56002,-0.93334 -1.21335,-1.88 -1.96,-2.84 -0.72001,-0.98667 -1.48001,-1.92 -2.28,-2.8 -0.80001,-0.90666 -1.61334,-1.73333 -2.44,-2.48 -0.82668,-0.74666 -1.61334,-1.37333 -2.36,-1.88 l 0,10 -3.72,0 0,-30.4 3.72,-0.64 0,18.96 c 0.63999,-0.63999 1.34666,-1.34666 2.12,-2.12 0.77332,-0.77332 1.53332,-1.55999 2.28,-2.36 0.74665,-0.79999 1.45332,-1.55999 2.12,-2.28 0.66665,-0.74665 1.23999,-1.39998 1.72,-1.96 l 4.36,0 c -0.61335,0.66668 -1.28002,1.40002 -2,2.2 -0.72002,0.80001 -1.46668,1.61335 -2.24,2.44 -0.77335,0.80001 -1.56001,1.61334 -2.36,2.44 -0.77335,0.80001 -1.50668,1.56001 -2.2,2.28"
         id="path3314" />
      <path
         d="m 328.40062,149.95701 c -0.85335,0.21333 -1.98668,0.44 -3.39999,0.68 -1.38669,0.24 -3.00002,0.36 -4.84001,0.36 -1.6,0 -2.94667,-0.22667 -4.03999,-0.68 -1.09334,-0.48 -1.97334,-1.14667 -2.64001,-2 -0.66667,-0.85333 -1.14667,-1.85333 -1.44,-3 -0.29333,-1.17333 -0.44,-2.46666 -0.44,-3.88 l 0,-11.68 3.72,0 0,10.88 c 0,2.53334 0.4,4.34667 1.2,5.44 0.8,1.09333 2.14666,1.64 4.04001,1.64 0.39998,0 0.81332,-0.0133 1.24,-0.04 0.42665,-0.0267 0.82665,-0.0533 1.2,-0.08 0.37331,-0.0533 0.70665,-0.0933 1,-0.12 0.31998,-0.0533 0.54665,-0.10667 0.68,-0.16 l 0,-17.56 3.71999,0 0,20.2"
         id="path3316" />
      <path
         d="m 349.24937,140.19701 c -10e-6,-2.42666 -0.60001,-4.29332 -1.8,-5.6 -1.20001,-1.30665 -2.80001,-1.95999 -4.79999,-1.96 -1.12001,1e-5 -2.00001,0.04 -2.64001,0.12 -0.61334,0.08 -1.10667,0.17335 -1.47999,0.28 l 0,13.12 c 0.45332,0.37333 1.10665,0.73333 1.95999,1.08 0.85333,0.34667 1.78666,0.52 2.8,0.52 1.06666,0 1.97332,-0.18667 2.72,-0.56 0.77332,-0.4 1.39999,-0.93333 1.88,-1.6 0.47999,-0.69333 0.82665,-1.49333 1.04,-2.4 0.21332,-0.93333 0.31999,-1.93333 0.32,-3 m 3.88,0 c -2e-5,1.57334 -0.21335,3.02667 -0.64,4.36 -0.40002,1.33333 -1.00001,2.48 -1.8,3.44 -0.80001,0.96 -1.78668,1.70666 -2.96,2.24 -1.14668,0.53333 -2.46668,0.8 -3.95999,0.8 -1.20002,0 -2.26668,-0.16 -3.20001,-0.48 -0.90667,-0.32 -1.58667,-0.62667 -2.03999,-0.92 l 0,8.32 -3.72001,0 0,-27.56 c 0.88,-0.21332 1.97333,-0.43998 3.28001,-0.68 1.33332,-0.26665 2.86665,-0.39998 4.59999,-0.4 1.59999,2e-5 3.03999,0.25335 4.32,0.76 1.27999,0.50668 2.37332,1.22668 3.28,2.16 0.90665,0.93335 1.59998,2.08001 2.08,3.44 0.50665,1.33334 0.75998,2.84001 0.76,4.52"
         id="path3318" />
      <path
         d="m 371.10187,129.75701 7.88,0 0,3.12 -7.88,0 0,9.6 c 0,1.04 0.08,1.90667 0.24001,2.6 0.15999,0.66667 0.39999,1.2 0.71999,1.6 0.32,0.37333 0.72,0.64 1.2,0.8 0.48,0.16 1.04,0.24 1.68,0.24 1.11999,0 2.01333,-0.12 2.68,-0.36 0.69332,-0.26667 1.17332,-0.45333 1.44,-0.56 l 0.72001,3.08 c -0.37335,0.18666 -1.02669,0.41333 -1.96001,0.68 -0.93334,0.29333 -2.00001,0.44 -3.2,0.44 -1.41334,0 -2.58667,-0.17334 -3.52,-0.52 -0.90667,-0.37334 -1.64,-0.92 -2.19999,-1.64 -0.56001,-0.72 -0.96001,-1.6 -1.20001,-2.64 -0.21333,-1.06667 -0.32,-2.29333 -0.32,-3.68 l 0,-18.56 3.72,-0.64 0,6.44"
         id="path3320" />
      <path
         d="m 401.52875,140.15701 c -2e-5,1.65334 -0.24002,3.14667 -0.72,4.48 -0.48002,1.33333 -1.16002,2.48 -2.04,3.44 -0.85335,0.96 -1.88002,1.70666 -3.08,2.24 -1.20001,0.50666 -2.50668,0.76 -3.92,0.76 -1.41334,0 -2.72001,-0.25334 -3.92,-0.76 -1.20001,-0.53334 -2.24001,-1.28 -3.12,-2.24 -0.85334,-0.96 -1.52,-2.10667 -2,-3.44 -0.48,-1.33333 -0.72,-2.82666 -0.72,-4.48 0,-1.62666 0.24,-3.10666 0.72,-4.44 0.48,-1.35999 1.14666,-2.51999 2,-3.48 0.87999,-0.95998 1.91999,-1.69332 3.12,-2.2 1.19999,-0.53332 2.50666,-0.79998 3.92,-0.8 1.41332,2e-5 2.71999,0.26668 3.92,0.8 1.19998,0.50668 2.22665,1.24002 3.08,2.2 0.87998,0.96001 1.55998,2.12001 2.04,3.48 0.47998,1.33334 0.71998,2.81334 0.72,4.44 m -3.88,0 c -2e-5,-2.34666 -0.53335,-4.19999 -1.6,-5.56 -1.04002,-1.38665 -2.46668,-2.07999 -4.28,-2.08 -1.81334,1e-5 -3.25334,0.69335 -4.32,2.08 -1.04001,1.36001 -1.56001,3.21334 -1.56,5.56 -1e-5,2.34667 0.51999,4.21334 1.56,5.6 1.06666,1.36 2.50666,2.04 4.32,2.04 1.81332,0 3.23998,-0.68 4.28,-2.04 1.06665,-1.38666 1.59998,-3.25333 1.6,-5.6"
         id="path3322" />
      <path
         d="m 425.1225,140.15701 c -2e-5,1.65334 -0.24002,3.14667 -0.72,4.48 -0.48002,1.33333 -1.16002,2.48 -2.04,3.44 -0.85335,0.96 -1.88002,1.70666 -3.08,2.24 -1.20001,0.50666 -2.50668,0.76 -3.92,0.76 -1.41334,0 -2.72001,-0.25334 -3.92,-0.76 -1.20001,-0.53334 -2.24001,-1.28 -3.12,-2.24 -0.85334,-0.96 -1.52,-2.10667 -2,-3.44 -0.48,-1.33333 -0.72,-2.82666 -0.72,-4.48 0,-1.62666 0.24,-3.10666 0.72,-4.44 0.48,-1.35999 1.14666,-2.51999 2,-3.48 0.87999,-0.95998 1.91999,-1.69332 3.12,-2.2 1.19999,-0.53332 2.50666,-0.79998 3.92,-0.8 1.41332,2e-5 2.71999,0.26668 3.92,0.8 1.19998,0.50668 2.22665,1.24002 3.08,2.2 0.87998,0.96001 1.55998,2.12001 2.04,3.48 0.47998,1.33334 0.71998,2.81334 0.72,4.44 m -3.88,0 c -2e-5,-2.34666 -0.53335,-4.19999 -1.6,-5.56 -1.04002,-1.38665 -2.46668,-2.07999 -4.28,-2.08 -1.81334,1e-5 -3.25334,0.69335 -4.32,2.08 -1.04001,1.36001 -1.56001,3.21334 -1.56,5.56 -1e-5,2.34667 0.51999,4.21334 1.56,5.6 1.06666,1.36 2.50666,2.04 4.32,2.04 1.81332,0 3.23998,-0.68 4.28,-2.04 1.06665,-1.38666 1.59998,-3.25333 1.6,-5.6"
         id="path3324" />
      <path
         d="m 436.59625,150.95701 c -2.29334,-0.0533 -3.92001,-0.54667 -4.88,-1.48 -0.96,-0.93334 -1.44,-2.38667 -1.44,-4.36 l 0,-24.96 3.72,-0.64 0,25 c -10e-6,0.61333 0.0533,1.12 0.16,1.52 0.10666,0.4 0.27999,0.72 0.52,0.96 0.23999,0.24 0.55999,0.42667 0.96,0.56 0.39999,0.10667 0.89332,0.2 1.48,0.28 l -0.52,3.12"
         id="path3326" />
    </g>
  </g>
</svg>
