<?xml version="1.0" encoding="UTF-8" standalone="no"?>
<!-- Created with Inkscape (http://www.inkscape.org/) -->

<svg
   xmlns:dc="http://purl.org/dc/elements/1.1/"
   xmlns:cc="http://creativecommons.org/ns#"
   xmlns:rdf="http://www.w3.org/1999/02/22-rdf-syntax-ns#"
   xmlns:svg="http://www.w3.org/2000/svg"
   xmlns="http://www.w3.org/2000/svg"
   version="1.2"
   width="520"
   height="196"
   id="svg2993">
  <defs
     id="defs2995" />
  <metadata
     id="metadata2998">
    <rdf:RDF>
      <cc:Work
         rdf:about="">
        <dc:format>image/svg+xml</dc:format>
        <dc:type
           rdf:resource="http://purl.org/dc/dcmitype/StillImage" />
        <dc:title></dc:title>
      </cc:Work>
    </rdf:RDF>
  </metadata>
  <g
     transform="translate(0,106)"
     id="layer1">
    <g
       transform="matrix(1.2369617,0,-0.337126,2.1588706,-4.5433878,-151.19079)"
       id="flowRoot3002"
       style="font-size:40px;font-style:normal;font-weight:normal;line-height:125%;letter-spacing:0px;word-spacing:0px;fill:#000000;fill-opacity:1;stroke:none;font-family:Sans">
      <path
         d="m 373.48625,60.829006 c -10e-6,0.576001 -0.19201,1.077334 -0.576,1.504 -0.38401,0.426667 -0.90667,0.64 -1.568,0.64 -0.66134,0 -1.184,-0.213333 -1.568,-0.64 -0.384,-0.426666 -0.576,-0.927999 -0.576,-1.504 0,-0.575998 0.192,-1.07733 0.576,-1.504 0.384,-0.426663 0.90666,-0.639996 1.568,-0.64 0.66133,4e-6 1.18399,0.213337 1.568,0.64 0.38399,0.42667 0.57599,0.928002 0.576,1.504 m -22.323,-6.56 c 0,-1.47199 0.21333,-2.751989 0.64,-3.84 0.42666,-1.10932 0.992,-2.026652 1.696,-2.752 0.704,-0.725318 1.51466,-1.269317 2.432,-1.632 0.91733,-0.36265 1.85599,-0.543983 2.816,-0.544 2.23999,1.7e-5 3.95732,0.704016 5.152,2.112 1.19465,1.38668 1.79198,3.509345 1.792,6.368 -2e-5,0.128009 -2e-5,0.298675 0,0.512 -2e-5,0.192008 -0.0107,0.373341 -0.032,0.544 l -11.392,0 c 0.128,1.728006 0.62933,3.040005 1.504,3.936 0.87466,0.896003 2.23999,1.344002 4.096,1.344 1.04532,2e-6 1.91999,-0.08533 2.624,-0.256 0.72532,-0.191997 1.26932,-0.37333 1.632,-0.544 l 0.416,2.496 c -0.36268,0.192 -1.00268,0.394667 -1.92,0.608 -0.89601,0.213333 -1.92001,0.32 -3.072,0.32 -1.45068,0 -2.70934,-0.213333 -3.776,-0.64 -1.04534,-0.447999 -1.90934,-1.055999 -2.592,-1.824 -0.68267,-0.767997 -1.19467,-1.674663 -1.536,-2.72 -0.32,-1.066661 -0.48,-2.229326 -0.48,-3.488 m 11.424,-1.632 c 0.0213,-1.343989 -0.32001,-2.442654 -1.024,-3.296 -0.68268,-0.874652 -1.63201,-1.311985 -2.848,-1.312 -0.68268,1.5e-5 -1.29067,0.138681 -1.824,0.416 -0.51201,0.256014 -0.94934,0.597347 -1.312,1.024 -0.36267,0.426679 -0.65067,0.917346 -0.864,1.472 -0.192,0.554678 -0.32,1.120011 -0.384,1.696 l 8.256,0 m -13.129,-6.72 c -0.83201,3.11468 -1.81335,6.101344 -2.944,8.96 -1.10934,2.858672 -2.18668,5.418669 -3.232,7.68 l -2.688,0 c -1.04534,-2.261331 -2.13334,-4.821328 -3.264,-7.68 -1.10934,-2.858656 -2.08,-5.84532 -2.912,-8.96 l 3.2,0 c 0.256,1.045349 0.55466,2.165348 0.896,3.36 0.36266,1.173346 0.73599,2.346678 1.12,3.52 0.40533,1.152009 0.81066,2.272008 1.216,3.36 0.40533,1.088005 0.78933,2.058671 1.152,2.912 0.36266,-0.853329 0.74666,-1.823995 1.152,-2.912 0.40532,-1.087992 0.79999,-2.207991 1.184,-3.36 0.40532,-1.173322 0.77866,-2.346654 1.12,-3.52 0.36265,-1.194652 0.67199,-2.314651 0.928,-3.36 l 3.072,0 m -18.141,16.64 -2.976,0 0,-16.64 2.976,0 0,16.64 m -1.504,-19.648 c -0.53334,2e-5 -0.992,-0.170647 -1.376,-0.512 -0.36267,-0.362646 -0.544,-0.842646 -0.544,-1.44 0,-0.597311 0.18133,-1.066644 0.544,-1.408 0.384,-0.362643 0.84266,-0.543976 1.376,-0.544 0.53333,2.4e-5 0.98133,0.181357 1.344,0.544 0.38399,0.341356 0.57599,0.810689 0.576,1.408 -10e-6,0.597354 -0.19201,1.077354 -0.576,1.44 -0.36267,0.341353 -0.81067,0.51202 -1.344,0.512 m -5.23,19.968 c -1.83467,-0.04267 -3.136,-0.437333 -3.904,-1.184 -0.768,-0.746665 -1.152,-1.90933 -1.152,-3.488 l 0,-19.968 2.976,-0.512 0,20 c -10e-6,0.490671 0.0427,0.896004 0.128,1.216 0.0853,0.320003 0.22399,0.576003 0.416,0.768 0.19199,0.192003 0.44799,0.341336 0.768,0.448 0.31999,0.08534 0.71466,0.160002 1.184,0.224 l -0.416,2.496 m -22.745,-2.464 c 1.21599,2e-6 2.11199,-0.159998 2.688,-0.48 0.59732,-0.319997 0.89599,-0.831996 0.896,-1.536 -1e-5,-0.725328 -0.28801,-1.301328 -0.864,-1.728 -0.57601,-0.42666 -1.52534,-0.90666 -2.848,-1.44 -0.64001,-0.255992 -1.25867,-0.511992 -1.856,-0.768 -0.576,-0.277325 -1.07734,-0.597325 -1.504,-0.96 -0.42667,-0.362657 -0.768,-0.79999 -1.024,-1.312 -0.256,-0.511989 -0.384,-1.141322 -0.384,-1.888 0,-1.471986 0.544,-2.634652 1.632,-3.488 1.088,-0.87465 2.57066,-1.311983 4.448,-1.312 0.46933,1.7e-5 0.93866,0.03202 1.408,0.096 0.46932,0.04268 0.90666,0.106684 1.312,0.192 0.40532,0.06402 0.75732,0.138683 1.056,0.224 0.31999,0.08535 0.56532,0.160016 0.736,0.224 l -0.544,2.56 c -0.32001,-0.170653 -0.82134,-0.341319 -1.504,-0.512 -0.68268,-0.191985 -1.50401,-0.287985 -2.464,-0.288 -0.83201,1.5e-5 -1.55734,0.170681 -2.176,0.512 -0.61867,0.320014 -0.928,0.832013 -0.928,1.536 0,0.362679 0.064,0.682679 0.192,0.96 0.14933,0.277345 0.36266,0.533344 0.64,0.768 0.29866,0.213344 0.66133,0.41601 1.088,0.608 0.42666,0.19201 0.93866,0.394677 1.536,0.608 0.78932,0.298676 1.49332,0.597342 2.112,0.896 0.61866,0.277342 1.14132,0.608008 1.568,0.992 0.44799,0.384007 0.78932,0.85334 1.024,1.408 0.23465,0.533339 0.35199,1.194672 0.352,1.984 -10e-6,1.536003 -0.57601,2.698668 -1.728,3.488 -1.13068,0.789333 -2.75201,1.184 -4.864,1.184 -1.472,0 -2.624,-0.128 -3.456,-0.384 -0.832,-0.234666 -1.39733,-0.415999 -1.696,-0.544 l 0.544,-2.56 c 0.34133,0.128003 0.88533,0.320003 1.632,0.576 0.74666,0.256002 1.73866,0.384002 2.976,0.384 m -9.021,2.144 -2.976,0 0,-16.64 2.976,0 0,16.64 m -1.504,-19.648 c -0.53334,2e-5 -0.992,-0.170647 -1.376,-0.512 -0.36267,-0.362646 -0.544,-0.842646 -0.544,-1.44 0,-0.597311 0.18133,-1.066644 0.544,-1.408 0.384,-0.362643 0.84266,-0.543976 1.376,-0.544 0.53333,2.4e-5 0.98133,0.181357 1.344,0.544 0.38399,0.341356 0.57599,0.810689 0.576,1.408 -10e-6,0.597354 -0.19201,1.077354 -0.576,1.44 -0.36267,0.341353 -0.81067,0.51202 -1.344,0.512 m -37.43762,-8.072 c 0.58665,1.01336 1.23998,2.253359 1.95999,3.72 0.71999,1.466689 1.45333,3.013354 2.2,4.64 0.74666,1.600018 1.47999,3.240016 2.20001,4.92 0.74665,1.653346 1.42664,3.186678 2.03999,4.6 0.61332,-1.413322 1.27999,-2.946654 2,-4.6 0.71998,-1.679984 1.45332,-3.319982 2.2,-4.92 0.74665,-1.626646 1.47998,-3.173311 2.20001,-4.64 0.71997,-1.466641 1.3733,-2.70664 1.95999,-3.72 l 4.56,0 c 0.23997,2.026692 0.46664,4.18669 0.68001,6.48 0.2133,2.266686 0.39996,4.600017 0.56,7 0.18663,2.373345 0.34663,4.773343 0.47999,7.2 0.15997,2.400005 0.29331,4.746669 0.4,7.04 l -4.95999,0 c -0.1067,-3.226663 -0.24003,-6.54666 -0.40001,-9.96 -0.13336,-3.41332 -0.34669,-6.719983 -0.64,-9.92 -0.29335,0.613353 -0.64002,1.346685 -1.04,2.2 -0.40002,0.85335 -0.82669,1.786683 -1.27999,2.8 -0.45336,0.986681 -0.92003,2.013346 -1.40001,3.08 -0.45335,1.066677 -0.90668,2.106676 -1.35999,3.12 -0.42669,0.986674 -0.82669,1.920007 -1.20001,2.8 -0.37335,0.853338 -0.69335,1.586671 -0.96,2.2 l -3.76,0 c -0.26668,-0.613329 -0.58668,-1.359995 -0.96,-2.24 -0.37334,-0.879993 -0.78668,-1.813326 -1.23999,-2.8 -0.42668,-1.013324 -0.88002,-2.053322 -1.36001,-3.12 -0.45334,-1.066654 -0.90667,-2.093319 -1.36,-3.08 -0.45334,-0.986651 -0.88001,-1.90665 -1.28,-2.76 -0.4,-0.879981 -0.74667,-1.613314 -1.04,-2.2 -0.29334,3.200017 -0.52,6.50668 -0.68,9.92 -0.13334,3.41334 -0.25334,6.733337 -0.36,9.96 l -4.96,0 c 0.10667,-2.293331 0.22667,-4.666662 0.36,-7.12 0.16,-2.453324 0.32,-4.879988 0.48,-7.28 0.18667,-2.42665 0.38667,-4.773314 0.6,-7.04 0.21333,-2.266643 0.44,-4.359974 0.68,-6.28 l 4.68001,0 m -14.98376,27.72 c -0.37335,-1.093332 -0.76002,-2.173331 -1.16,-3.24 -0.40002,-1.066662 -0.78668,-2.159995 -1.16,-3.28 l -11.68,0 c -0.37334,1.120005 -0.76,2.226671 -1.16,3.32 -0.37333,1.066669 -0.74667,2.133334 -1.12,3.2 l -5.24,0 c 1.04,-2.959997 2.02667,-5.693328 2.96,-8.2 0.93333,-2.506656 1.84,-4.879987 2.72,-7.12 0.90666,-2.239982 1.8,-4.373314 2.68,-6.4 0.88,-2.026643 1.78666,-4.026641 2.72,-6 l 4.76,0 c 0.93332,1.973359 1.83999,3.973357 2.72,6 0.87999,2.026686 1.75998,4.160018 2.64,6.4 0.90665,2.240013 1.82665,4.613344 2.76,7.12 0.95998,2.506672 1.95998,5.240003 3,8.2 l -5.44,0 m -8.16,-22.36 c -0.61334,1.413354 -1.32001,3.133353 -2.12,5.16 -0.77334,2.026682 -1.58667,4.22668 -2.44,6.6 l 9.12,0 c -0.85335,-2.37332 -1.68001,-4.586651 -2.48,-6.64 -0.80001,-2.053314 -1.49334,-3.759979 -2.08,-5.12 m -24.24812,22.96 c -2.08001,-1e-6 -3.94668,-0.32 -5.6,-0.96 -1.65334,-0.639999 -3.05334,-1.573331 -4.2,-2.8 -1.14667,-1.253329 -2.02667,-2.773327 -2.64,-4.56 -0.61334,-1.786657 -0.92,-3.839988 -0.92,-6.16 0,-2.319984 0.34666,-4.373315 1.04,-6.16 0.72,-1.786645 1.69333,-3.29331 2.92,-4.52 1.22666,-1.253307 2.66666,-2.199973 4.32,-2.84 1.65332,-0.639972 3.42665,-0.959972 5.32,-0.96 1.14665,2.8e-5 2.18665,0.09336 3.12,0.28 0.93331,0.160028 1.74665,0.346694 2.44,0.56 0.69331,0.213361 1.26664,0.440027 1.72,0.68 0.45331,0.240027 0.77331,0.41336 0.96,0.52 l -1.48,4.12 c -0.64002,-0.399977 -1.56002,-0.77331 -2.76,-1.12 -1.17335,-0.37331 -2.45335,-0.559976 -3.84,-0.56 -1.20001,2.4e-5 -2.32001,0.213357 -3.36,0.64 -1.04001,0.400023 -1.94668,1.013356 -2.72,1.84 -0.74668,0.826687 -1.33334,1.866686 -1.76,3.12 -0.42667,1.25335 -0.64001,2.706682 -0.64,4.36 -1e-5,1.466679 0.15999,2.813345 0.48,4.04 0.34666,1.226675 0.86666,2.293341 1.56,3.2 0.69332,0.880006 1.57332,1.573339 2.64,2.08 1.06665,0.480004 2.34665,0.720004 3.84,0.72 1.78665,4e-6 3.23998,-0.173329 4.36,-0.52 1.11998,-0.373328 1.98664,-0.719995 2.6,-1.04 l 1.36,4.12 c -0.32002,0.213335 -0.76002,0.426668 -1.32,0.64 -0.53336,0.213334 -1.17336,0.426667 -1.92,0.64 -0.74669,0.186667 -1.58669,0.333333 -2.52,0.44 -0.93335,0.133333 -1.93335,0.199999 -3,0.2 m -16.73375,-17.16 c -0.40001,-0.133317 -0.96001,-0.26665 -1.68,-0.4 -0.69335,-0.159983 -1.50668,-0.239983 -2.44,-0.24 -0.53334,1.7e-5 -1.10668,0.05335 -1.72,0.16 -0.58668,0.106684 -1.00001,0.200017 -1.24,0.28 l 0,16.76 -4.84,0 0,-19.92 c 0.93333,-0.346646 2.09333,-0.666646 3.48,-0.96 1.41333,-0.319979 2.97332,-0.479979 4.68,-0.48 0.31999,2.1e-5 0.69332,0.02669 1.12,0.08 0.42665,0.02669 0.85332,0.08002 1.28,0.16 0.42665,0.05335 0.83999,0.133354 1.24,0.24 0.39998,0.08002 0.71998,0.160021 0.96,0.24 l -0.84,4.08 m -35.8925,6.2 c 0,-1.839988 0.26666,-3.453319 0.8,-4.84 0.56,-1.38665 1.29333,-2.533316 2.2,-3.44 0.90666,-0.933314 1.94666,-1.626646 3.12,-2.08 1.17332,-0.479979 2.37332,-0.719978 3.6,-0.72 2.87999,2.2e-5 5.11998,0.893354 6.72,2.68 1.62665,1.786684 2.43998,4.453348 2.44,8 -2e-5,0.266677 -0.0134,0.573344 -0.04,0.92 -2e-5,0.32001 -0.0134,0.613343 -0.04,0.88 l -13.8,0 c 0.13333,1.680007 0.71999,2.986673 1.76,3.92 1.06666,0.906671 2.59999,1.360004 4.6,1.36 1.17332,4e-6 2.23998,-0.106663 3.2,-0.32 0.98665,-0.213329 1.75998,-0.439995 2.32,-0.68 l 0.64,3.96 c -0.26669,0.133334 -0.64002,0.280001 -1.12,0.44 -0.45335,0.133334 -0.98668,0.253333 -1.6,0.36 -0.58668,0.133333 -1.22668,0.24 -1.92,0.32 -0.69335,0.08 -1.40001,0.12 -2.12,0.12 -1.84001,0 -3.44001,-0.266667 -4.8,-0.8 -1.36001,-0.559999 -2.48001,-1.319998 -3.36,-2.28 -0.88,-0.986663 -1.53334,-2.133329 -1.96,-3.44 -0.42667,-1.333326 -0.64,-2.786658 -0.64,-4.36 m 14.04,-2.16 c -2e-5,-0.666653 -0.0934,-1.293319 -0.28,-1.88 -0.18668,-0.613318 -0.46668,-1.133318 -0.84,-1.56 -0.34668,-0.453317 -0.78668,-0.799983 -1.32,-1.04 -0.50668,-0.266649 -1.12001,-0.399983 -1.84,-0.4 -0.74668,1.7e-5 -1.40001,0.146684 -1.96,0.44 -0.56001,0.266683 -1.04001,0.626683 -1.44,1.08 -0.37334,0.453349 -0.66667,0.973348 -0.88,1.56 -0.21334,0.58668 -0.36001,1.18668 -0.44,1.8 l 9,0 m -29.13375,-0.24 c 0.61332,-0.639987 1.26666,-1.319986 1.96,-2.04 0.69332,-0.746651 1.37332,-1.479984 2.04,-2.2 0.66665,-0.746649 1.29332,-1.453315 1.88,-2.12 0.61332,-0.693313 1.13332,-1.293313 1.56,-1.8 l 5.72,0 c -1.33335,1.493353 -2.74669,3.040018 -4.24,4.64 -1.46668,1.600015 -2.94668,3.160013 -4.44,4.68 0.79999,0.666678 1.63999,1.48001 2.52,2.44 0.87998,0.933342 1.73332,1.933341 2.56,3 0.82665,1.066672 1.59998,2.133337 2.32,3.2 0.71998,1.066669 1.31998,2.053334 1.8,2.96 l -5.6,0 c -0.48002,-0.826666 -1.04001,-1.693332 -1.68,-2.6 -0.61335,-0.906663 -1.28001,-1.786662 -2,-2.64 -0.72001,-0.853327 -1.45334,-1.653326 -2.2,-2.4 -0.74668,-0.773325 -1.48001,-1.426658 -2.2,-1.96 l 0,9.6 -4.84,0 0,-30.24 4.84,-0.8 0,18.28 m -9.82625,2.28 c -2e-5,1.653342 -0.24002,3.160007 -0.72,4.52 -0.48002,1.360005 -1.16002,2.520004 -2.04,3.48 -0.88002,0.960002 -1.94668,1.706668 -3.2,2.24 -1.22668,0.533333 -2.58668,0.8 -4.08,0.8 -1.49334,0 -2.85334,-0.266667 -4.08,-0.8 -1.22667,-0.533332 -2.28001,-1.279998 -3.16,-2.24 -0.88,-0.959996 -1.57334,-2.119995 -2.08,-3.48 -0.48,-1.359993 -0.72,-2.866658 -0.72,-4.52 0,-1.653321 0.24,-3.146653 0.72,-4.48 0.50666,-1.359984 1.2,-2.519982 2.08,-3.48 0.90666,-0.959981 1.97333,-1.693313 3.2,-2.2 1.22666,-0.533312 2.57332,-0.799978 4.04,-0.8 1.46665,2.2e-5 2.81332,0.266688 4.04,0.8 1.25332,0.506687 2.31998,1.240019 3.2,2.2 0.87998,0.960018 1.55998,2.120016 2.04,3.48 0.50664,1.333347 0.75998,2.826679 0.76,4.48 m -4.96,0 c -2e-5,-2.079987 -0.45335,-3.719986 -1.36,-4.92 -0.88001,-1.22665 -2.12001,-1.839983 -3.72,-1.84 -1.60001,1.7e-5 -2.85334,0.61335 -3.76,1.84 -0.88001,1.200014 -1.32001,2.840013 -1.32,4.92 -10e-6,2.106675 0.43999,3.77334 1.32,5 0.90666,1.226671 2.15999,1.840004 3.76,1.84 1.59999,4e-6 2.83999,-0.613329 3.72,-1.84 0.90665,-1.22666 1.35998,-2.893325 1.36,-5 m -15.3375,-17.24 0,4.36 -8.52,0 0,23.36 -5.08,0 0,-23.36 -8.52,0 0,-4.36 22.12,0 m -73.07322,-6.801919 371.87894,0 -0.92579,-3.396837 -371.878936,0 z m 29.63194,1.544011 -29.10356,0 12.203548,44.776498 29.10356,0 z M 95.858881,83.245236 76.029536,57.870272 62.915852,68.263701 38.782345,72.242943 79.450359,89.701892 111.94381,103.4263 z m 282.280969,-53.97494 29.10356,0 12.20354,44.776498 -29.10356,0 z m -1.40745,53.666137 5.99777,-25.374965 18.77901,10.39343 26.30254,3.979241 -31.15136,17.458949 -25.01245,13.724412 z"
         id="path3074"
         style="font-size:32px" />
    </g>
  </g>
</svg>
