<?xml version="1.0" encoding="UTF-8" standalone="no"?>
<!-- Created with Inkscape (http://www.inkscape.org/) -->

<svg
   xmlns:dc="http://purl.org/dc/elements/1.1/"
   xmlns:cc="http://creativecommons.org/ns#"
   xmlns:rdf="http://www.w3.org/1999/02/22-rdf-syntax-ns#"
   xmlns:svg="http://www.w3.org/2000/svg"
   xmlns="http://www.w3.org/2000/svg"
   version="1.1"
   width="250"
   height="90"
   id="svg3210">
  <defs
     id="defs3212" />
  <metadata
     id="metadata3215">
    <rdf:RDF>
      <cc:Work
         rdf:about="">
        <dc:format>image/svg+xml</dc:format>
        <dc:type
           rdf:resource="http://purl.org/dc/dcmitype/StillImage" />
        <dc:title></dc:title>
      </cc:Work>
    </rdf:RDF>
  </metadata>
  <g
     transform="translate(0,-962.36218)"
     id="layer1">
    <path
       d="m 217.44,1004.4355 c -0.10079,0.6226 -0.31154,1.1646 -0.63247,1.6256 -0.32097,0.4613 -0.69356,0.6918 -1.11784,0.6918 -0.42426,0 -0.72227,-0.2305 -0.89401,-0.6918 -0.17175,-0.461 -0.20728,-1.003 -0.10654,-1.6256 0.10079,-0.6227 0.31156,-1.1645 0.63249,-1.6257 0.32096,-0.4613 0.69355,-0.6918 1.11782,-0.6918 0.42426,0 0.72227,0.2305 0.89402,0.6918 0.17174,0.4612 0.20725,1.003 0.10653,1.6257 m -13.17389,-7.09094 c 0.25736,-1.59113 0.61802,-2.97472 1.08199,-4.15075 0.46766,-1.19918 0.99074,-2.19065 1.56921,-2.97472 0.57843,-0.78423 1.19363,-1.37217 1.84554,-1.76412 0.6519,-0.39212 1.28579,-0.5881 1.90167,-0.5881 1.43701,0 2.41565,0.76109 2.93588,2.28294 0.52396,1.49885 0.53602,3.7935 0.0362,6.88334 -0.0224,0.1392 -0.0522,0.32298 -0.0895,0.55353 -0.0336,0.20755 -0.0721,0.40353 -0.11564,0.58809 l -7.30832,0 c -0.22001,1.86783 -0.12779,3.28593 0.27667,4.25443 0.40448,0.9685 1.20205,1.4529 2.39272,1.4529 0.67061,0 1.24666,-0.092 1.72814,-0.2769 0.49889,-0.2075 0.87958,-0.4035 1.14209,-0.5879 l -0.16953,2.6979 c -0.26624,0.2075 -0.71224,0.4267 -1.33805,0.6574 -0.61211,0.2305 -1.28769,0.3458 -2.02672,0.3458 -0.93066,0 -1.70083,-0.2306 -2.31052,-0.6918 -0.59229,-0.4842 -1.04026,-1.1414 -1.34394,-1.9715 -0.30368,-0.8302 -0.4736,-1.8103 -0.5098,-2.9402 -0.0188,-1.15301 0.0819,-2.4099 0.30192,-3.77034 m 7.6142,-1.76397 c 0.24863,-1.45287 0.22178,-2.64048 -0.0807,-3.56281 -0.28503,-0.94549 -0.81759,-1.4183 -1.59769,-1.4183 -0.43795,0 -0.85224,0.15014 -1.24287,0.44983 -0.37324,0.27652 -0.71349,0.64549 -1.02074,1.10673 -0.30726,0.4611 -0.57781,0.99163 -0.81165,1.59114 -0.22015,0.59952 -0.40112,1.21075 -0.54289,1.83341 l 5.29649,0 m -7.24769,-7.2642 c -1.07834,3.36699 -2.23011,6.5954 -3.45527,9.6854 -1.2115,3.09001 -2.35026,5.85721 -3.41624,8.30151 l -1.72444,0 c -0.27523,-2.4443 -0.5256,-5.2115 -0.75114,-8.30151 -0.21186,-3.09 -0.31236,-6.31841 -0.30152,-9.6854 l 2.05288,0 c -0.0184,1.13004 -0.0227,2.3408 -0.0127,3.6321 0.0276,1.26831 0.0619,2.53678 0.10311,3.80494 0.0586,1.24531 0.1228,2.45575 0.19262,3.63194 0.0698,1.17603 0.14643,2.22523 0.2299,3.14773 0.38186,-0.9225 0.79792,-1.9717 1.24818,-3.14773 0.45026,-1.17619 0.89928,-2.38663 1.34705,-3.63194 0.46518,-1.26816 0.90984,-2.53663 1.33398,-3.80494 0.44154,-1.2913 0.8358,-2.50206 1.18282,-3.6321 l 1.97077,0 m -14.54741,17.98691 -1.9092,0 2.90942,-17.98691 1.90919,0 -2.90941,17.98691 m 2.4705,-21.23816 c -0.34217,0 -0.60657,-0.18456 -0.79323,-0.55352 -0.16928,-0.39212 -0.20166,-0.91077 -0.0972,-1.55642 0.10448,-0.64581 0.30281,-1.15304 0.59516,-1.52216 0.30974,-0.39195 0.6357,-0.58794 0.97787,-0.58794 0.34214,0 0.59784,0.19599 0.76709,0.58794 0.18667,0.36912 0.22778,0.87635 0.12335,1.52216 -0.10448,0.64565 -0.31156,1.1643 -0.6213,1.55642 -0.29235,0.36896 -0.60959,0.55352 -0.95173,0.55352 m -6.84651,21.58416 c -1.16955,-0.047 -1.93538,-0.4729 -2.29753,-1.28 -0.36214,-0.807 -0.40521,-2.0637 -0.12917,-3.7703 l 3.4913,-21.58396 1.9987,-0.55352 -3.49689,21.61888 c -0.0858,0.5302 -0.12927,0.9684 -0.13049,1.3143 -0.002,0.3458 0.043,0.6226 0.13259,0.8302 0.0896,0.2075 0.22772,0.3689 0.41437,0.4842 0.19035,0.092 0.4305,0.173 0.7204,0.2421 l -0.70328,2.6981 m -14.1608,-2.6635 c 0.7801,0 1.38289,-0.173 1.80836,-0.5188 0.43916,-0.346 0.72027,-0.8994 0.84338,-1.6603 0.1268,-0.7841 0.0427,-1.4067 -0.25216,-1.8678 -0.29492,-0.46125 -0.82002,-0.98021 -1.57529,-1.55657 -0.36583,-0.27685 -0.71796,-0.55353 -1.05639,-0.83021 -0.32106,-0.29984 -0.58671,-0.64566 -0.79703,-1.03761 -0.21031,-0.39212 -0.35281,-0.86479 -0.42751,-1.41831 -0.0747,-0.55337 -0.0468,-1.23359 0.0837,-2.04081 0.25738,-1.59114 0.80963,-2.84787 1.65684,-3.77037 0.8509,-0.94548 1.87854,-1.41815 3.08291,-1.41815 0.30109,0 0.59658,0.0345 0.88649,0.1048 0.29362,0.0469 0.563,0.11418 0.80812,0.20755 0.24883,0.0688 0.46159,0.15016 0.63829,0.24197 0.19036,0.0922 0.3347,0.17314 0.433,0.24227 l -0.79659,2.76716 c -0.17546,-0.1844 -0.46724,-0.3688 -0.87534,-0.55337 -0.4044,-0.20755 -0.91453,-0.31125 -1.53039,-0.31125 -0.53375,0 -1.02892,0.18441 -1.48548,0.55338 -0.45285,0.34581 -0.74081,0.89934 -0.8639,1.66026 -0.0635,0.39212 -0.0783,0.73794 -0.0446,1.03777 0.0473,0.29968 0.13941,0.57652 0.2763,0.83021 0.1543,0.23055 0.35154,0.44967 0.59169,0.65723 0.24014,0.20755 0.53316,0.42652 0.87907,0.65706 0.45416,0.32283 0.85357,0.64581 1.19825,0.96848 0.34839,0.29999 0.62589,0.65738 0.83249,1.07234 0.22024,0.4151 0.35716,0.92248 0.41073,1.522 0.0573,0.57647 0.017,1.29147 -0.12106,2.14447 -0.26859,1.6605 -0.84139,2.9172 -1.71842,3.7704 -0.86339,0.8532 -1.97253,1.2799 -3.32744,1.2799 -0.94433,0 -1.66099,-0.1377 -2.14998,-0.4152 -0.49271,-0.2536 -0.82369,-0.4496 -0.99292,-0.588 l 0.79658,-2.7672 c 0.19661,0.1377 0.51203,0.346 0.94629,0.6227 0.43423,0.2765 1.04825,0.4151 1.84205,0.4151 m -6.16212,2.3174 -1.9092,0 2.90943,-17.98681 1.90919,0 -2.90942,17.98681 m 2.4705,-21.23822 c -0.34217,0 -0.60656,-0.1844 -0.79324,-0.55352 -0.16925,-0.39197 -0.20164,-0.91077 -0.0973,-1.55642 0.10448,-0.64565 0.30283,-1.15289 0.59517,-1.52201 0.30975,-0.39195 0.63571,-0.58793 0.97786,-0.58793 0.34214,0 0.59784,0.19598 0.7671,0.58793 0.18666,0.36912 0.22778,0.87636 0.12335,1.52201 -0.10448,0.64565 -0.31157,1.16445 -0.6213,1.55642 -0.29236,0.36912 -0.6096,0.55352 -0.95174,0.55352 m -22.60599,-8.72521 c 0.19917,1.09533 0.4015,2.43574 0.60697,4.02093 0.20546,1.58551 0.40548,3.2572 0.6001,5.01553 0.19923,1.72956 0.38294,3.50228 0.55112,5.31834 0.18991,1.78711 0.35805,3.44457 0.50442,4.97236 0.6406,-1.52779 1.33637,-3.18525 2.08736,-4.97236 0.75563,-1.81606 1.51282,-3.58878 2.2716,-5.31834 0.76341,-1.75833 1.50429,-3.43002 2.22265,-5.01553 0.71832,-1.58519 1.35426,-2.9256 1.90781,-4.02093 l 2.92539,0 c -0.20041,2.19065 -0.43267,4.5255 -0.69675,7.00441 -0.25948,2.45013 -0.5477,4.97221 -0.86467,7.56654 -0.29523,2.56556 -0.61222,5.15973 -0.95095,7.7827 -0.317,2.59418 -0.64176,5.13098 -0.9743,7.60978 l -3.18198,0 c 0.49571,-3.4878 0.99066,-7.07644 1.48485,-10.76609 0.51123,-3.68951 0.95253,-7.26389 1.32388,-10.72285 -0.29544,0.66302 -0.64606,1.45568 -1.05186,2.37803 -0.40583,0.92249 -0.84273,1.93131 -1.31071,3.02664 -0.46336,1.06655 -0.94225,2.17641 -1.43668,3.3293 -0.47733,1.15303 -0.95,2.27713 -1.418,3.37246 -0.44624,1.06654 -0.86604,2.07538 -1.25939,3.02665 -0.38871,0.92246 -0.72223,1.71516 -1.00053,2.37806 l -2.41214,0 c -0.0639,-0.6629 -0.1386,-1.4701 -0.22423,-2.42139 -0.0857,-0.95111 -0.18764,-1.95995 -0.30594,-3.02649 -0.0965,-1.09532 -0.20552,-2.21958 -0.32696,-3.37246 -0.10437,-1.15304 -0.21565,-2.26275 -0.33396,-3.3293 -0.11832,-1.06654 -0.23118,-2.06098 -0.33859,-2.98347 -0.10279,-0.95128 -0.19693,-1.7438 -0.28252,-2.37803 -0.7477,3.45896 -1.47126,7.03334 -2.17071,10.72285 -0.68235,3.68965 -1.33982,7.27829 -1.97241,10.76609 l -3.18198,0 c 0.46941,-2.4788 0.96136,-5.0444 1.47584,-7.69612 0.53159,-2.65189 1.05853,-5.27501 1.58081,-7.86934 0.54404,-2.62296 1.08264,-5.15974 1.61582,-7.60987 0.53318,-2.44997 1.0446,-4.71272 1.53428,-6.7881 l 3.00236,0 m -14.45923,29.96343 c -0.0483,-1.1819 -0.10763,-2.3491 -0.17769,-3.502 -0.0701,-1.1531 -0.127,-2.3351 -0.17068,-3.5455 l -7.49308,0 c -0.43534,1.2104 -0.87689,2.4068 -1.32466,3.5885 -0.426,1.1531 -0.85201,2.3061 -1.27801,3.459 l -3.36162,0 c 1.18474,-3.1996 2.29562,-6.1541 3.33265,-8.86354 1.03705,-2.70961 2.03367,-5.27501 2.98988,-7.69636 0.97329,-2.4212 1.9194,-4.72727 2.8383,-6.91793 0.91889,-2.19079 1.85023,-4.35266 2.79403,-6.4856 l 3.05369,0 c 0.25371,2.13294 0.48568,4.29481 0.69589,6.4856 0.21017,2.19066 0.40171,4.49673 0.57463,6.91793 0.19,2.42135 0.36522,4.98675 0.52573,7.69636 0.17757,2.70944 0.34118,5.66394 0.49086,8.86354 l -3.48992,0 m -1.32537,-24.16977 c -0.64059,1.52779 -1.39468,3.38701 -2.26223,5.57766 -0.85047,2.19064 -1.75691,4.56882 -2.71932,7.13422 l 5.85076,0 c -0.13249,-2.5654 -0.27583,-4.95781 -0.43003,-7.17754 -0.1542,-2.21928 -0.30061,-4.0641 -0.43918,-5.53434 m -19.57033,24.81847 c -1.33438,0 -2.47598,-0.346 -3.42472,-1.0377 -0.94877,-0.6918 -1.68372,-1.7007 -2.20486,-3.0267 -0.51648,-1.3548 -0.81528,-2.99772 -0.89636,-4.92904 -0.081,-1.93118 0.0811,-4.15091 0.48684,-6.6586 0.40564,-2.50784 0.98706,-4.72727 1.74425,-6.65859 0.77429,-1.93116 1.66214,-3.55984 2.66356,-4.88586 1.00608,-1.35466 2.0954,-2.37803 3.26797,-3.06982 1.17255,-0.69179 2.36615,-1.03761 3.58079,-1.03777 0.7356,1.6e-4 1.38648,0.1001 1.95262,0.30281 0.57076,0.17299 1.05991,0.37475 1.46741,0.6053 0.40749,0.23054 0.73566,0.47563 0.98455,0.73496 0.24885,0.25947 0.42382,0.44686 0.52496,0.56212 l -1.66984,4.45341 c -0.34065,-0.43231 -0.8656,-0.83585 -1.5748,-1.2106 -0.68748,-0.40353 -1.47599,-0.6053 -2.36556,-0.6053 -0.76985,0 -1.52566,0.23055 -2.26743,0.6918 -0.73716,0.43246 -1.42604,1.09531 -2.06668,1.98887 -0.62356,0.89356 -1.18175,2.01782 -1.67461,3.37263 -0.49287,1.3548 -0.88384,2.9256 -1.17291,4.71287 -0.25645,1.58536 -0.38926,3.04104 -0.39845,4.36691 0.007,1.32603 0.15502,2.47906 0.4413,3.45896 0.29092,0.95124 0.73424,1.70074 1.32996,2.24834 0.60037,0.5188 1.37955,0.7783 2.33759,0.7783 1.14618,0 2.10883,-0.1874 2.88799,-0.5621 0.78377,-0.4036 1.40036,-0.7783 1.84981,-1.1241 l 0.15212,4.4536 c -0.2426,0.2305 -0.56217,0.461 -0.95872,0.6918 -0.37947,0.2305 -0.82734,0.461 -1.34364,0.6916 -0.51167,0.2017 -1.07618,0.3603 -1.69358,0.4757 -0.62209,0.144 -1.27528,0.2162 -1.95956,0.2162 m -7.73487,-18.54902 c -0.23332,-0.1439 -0.56926,-0.2881 -1.00783,-0.43231 -0.41683,-0.17299 -0.92463,-0.25948 -1.523375,-0.25948 -0.342151,0 -0.719294,0.0579 -1.131408,0.17298 -0.395037,0.11419 -0.676506,0.21616 -0.844453,0.30265 l -2.930411,18.11648 -3.104997,0 3.482908,-21.53211 c 0.659369,-0.37491 1.459492,-0.72073 2.400377,-1.03792 0.962642,-0.34582 1.991397,-0.51865 3.086299,-0.51865 0.20527,0 0.44012,0.0281 0.70453,0.086 0.26903,0.0281 0.53342,0.086 0.79317,0.17298 0.26439,0.0579 0.51556,0.1439 0.75354,0.25933 0.24262,0.086 0.4339,0.17314 0.57391,0.25948 l -1.25226,4.41022 m -24.110155,6.70177 c 0.321712,-1.98888 0.774857,-3.73268 1.359465,-5.23169 0.601707,-1.49885 1.272649,-2.73838 2.012837,-3.71843 0.744838,-1.00883 1.533251,-1.75834 2.365252,-2.24836 0.836641,-0.51881 1.648442,-0.7783 2.435394,-0.7783 1.847599,0 3.128422,0.96583 3.842494,2.89683 0.731157,1.93149 0.786672,4.81408 0.166576,8.64779 -0.0466,0.28811 -0.108842,0.61953 -0.186516,0.99429 -0.05594,0.34597 -0.115835,0.66301 -0.179524,0.95143 l -8.85312,0 c -0.208198,1.81574 -0.06027,3.22825 0.4437,4.23704 0.52577,0.9801 1.430183,1.4701 2.713249,1.4701 0.752724,0 1.45567,-0.1142 2.108849,-0.3458 0.670267,-0.2307 1.206013,-0.4756 1.607243,-0.7351 l -0.281804,4.2805 c -0.194401,0.1439 -0.459547,0.3027 -0.795442,0.4755 -0.314155,0.1439 -0.677278,0.2739 -1.089398,0.3892 -0.399682,0.1439 -0.82891,0.2594 -1.287689,0.346 -0.458787,0.086 -0.919124,0.1297 -1.381022,0.1297 -1.180421,0 -2.160242,-0.2882 -2.939472,-0.8649 -0.774569,-0.6053 -1.360206,-1.4269 -1.756894,-2.4643 -0.392035,-1.0666 -0.610679,-2.3061 -0.655932,-3.71863 -0.04062,-1.44113 0.07664,-3.01209 0.351754,-4.71287 m 9.384737,-2.33486 c 0.116558,-0.72041 0.166219,-1.39782 0.149082,-2.03205 -0.01251,-0.66301 -0.101234,-1.22514 -0.26612,-1.68623 -0.143151,-0.49003 -0.364809,-0.86478 -0.664983,-1.12426 -0.278425,-0.2881 -0.648586,-0.43231 -1.110474,-0.43231 -0.479025,0 -0.923804,0.15844 -1.334335,0.47563 -0.405891,0.28811 -0.776775,0.67725 -1.112641,1.16728 -0.318767,0.49018 -0.597875,1.05231 -0.837295,1.68638 -0.239451,0.63408 -0.438444,1.28271 -0.597,1.94556 l 5.773766,0 m -18.648177,-0.26011 c 0.505358,-0.69179 1.043386,-1.42675 1.61408,-2.20503 0.575334,-0.80722 1.139791,-1.5999 1.693376,-2.37818 0.558226,-0.80706 1.083814,-1.57096 1.576752,-2.29153 0.514688,-0.74951 0.95319,-1.39798 1.315504,-1.94572 l 3.669559,0 c -1.116491,1.61429 -2.29362,3.28597 -3.531367,5.01553 -1.220678,1.72956 -2.442893,3.41579 -3.666671,5.05886 0.396647,0.72072 0.793334,1.59973 1.19003,2.6375 0.401347,1.00884 0.773945,2.08977 1.117791,3.24265 0.343809,1.15319 0.653428,2.30609 0.928841,3.45909 0.275392,1.1529 0.487797,2.2196 0.637215,3.1996 l -3.592563,0 c -0.163418,-0.8935 -0.371135,-1.8304 -0.623179,-2.8104 -0.234954,-0.9801 -0.508777,-1.9314 -0.821467,-2.8539 -0.31271,-0.92228 -0.64329,-1.7869 -0.99174,-2.59413 -0.34381,-0.83584 -0.700029,-1.54203 -1.068678,-2.11854 l -1.678502,10.37697 -3.105016,0 5.287317,-32.6876 3.244883,-0.86462 -3.196165,19.75945 m -6.70248,2.46468 c -0.289093,1.78712 -0.70649,3.41564 -1.25221,4.88571 -0.545728,1.47008 -1.184792,2.72398 -1.91718,3.76168 -0.732408,1.0376 -1.547253,1.8447 -2.444551,2.4212 -0.880198,0.5765 -1.799304,0.8649 -2.757308,0.8649 -0.958032,0 -1.783879,-0.2884 -2.477574,-0.8649 -0.693694,-0.5765 -1.238892,-1.3836 -1.63558,-2.4212 -0.396696,-1.0377 -0.638678,-2.2916 -0.725927,-3.76168 -0.0701,-1.47007 0.03928,-3.09859 0.328405,-4.88571 0.289063,-1.78727 0.704138,-3.4014 1.245207,-4.84269 0.562819,-1.47009 1.210442,-2.724 1.942841,-3.76177 0.749499,-1.03761 1.562011,-1.83029 2.43755,-2.37803 0.88019,-0.57636 1.790736,-0.86477 2.73166,-0.86477 0.940894,0 1.758201,0.28841 2.451905,0.86477 0.715453,0.54774 1.271531,1.34042 1.668238,2.37803 0.396686,1.03777 0.630099,2.29168 0.70026,3.76177 0.09185,1.44129 -0.0067,3.05542 -0.295736,4.84269 m -3.181995,0 c 0.363663,-2.24852 0.359581,-4.02124 -0.01222,-5.31834 -0.350077,-1.32602 -1.03833,-1.98903 -2.06477,-1.98903 -1.02646,0 -1.937748,0.66301 -2.733873,1.98903 -0.774368,1.2971 -1.343387,3.06982 -1.707058,5.31834 -0.368342,2.27699 -0.377479,4.07864 -0.02743,5.40469 0.367167,1.3258 1.063978,1.9888 2.090437,1.9888 1.026441,0 1.929179,-0.663 2.708206,-1.9888 0.796117,-1.32605 1.378355,-3.1277 1.746706,-5.40469 m -6.825142,-18.63551 -0.762322,4.71287 -5.465841,0 -4.084374,25.25073 -3.25898,0 4.084384,-25.25073 -5.465839,0 0.762322,-4.71287 14.19065,0 m -45.6893892,-7.35231 238.5715732,0 -2e-5,-3.67183 -238.5715532,0 z m 18.7398212,1.66894 -18.6708063,0 0,48.40037 18.6708163,0 z m 10.286167,58.00967 -8.28444,-27.4287 -10.230065,11.2345 -16.17811747,4.3015 23.03715147,18.8719 18.445885,14.8351 z m 190.529005,-58.34357 18.67082,0 0,48.40067 -18.67082,0 z m -10.28618,58.00957 8.28444,-27.4286 10.23005,11.2346 16.17814,4.3014 -23.03715,18.872 -18.4459,14.8351 z"
       id="path3074"
       style="font-size:32px;font-style:normal;font-weight:normal;line-height:125%;letter-spacing:0px;word-spacing:0px;fill:#000000;fill-opacity:1;stroke:none;font-family:Sans" />
    <path
       d="m 38.803466,1005.773 c 0,-0.1578 0.864119,-5.6231 1.920272,-12.14531 1.056153,-6.52205 1.920273,-12.05326 1.920273,-12.29147 0,-0.34769 -0.52345,-0.43309 -2.652421,-0.43309 l -2.65243,0 0.304335,-2.19409 0.304334,-2.19393 7.01031,0 c 6.525053,0 6.999063,0.036 6.847739,0.51193 -0.08946,0.28168 -0.259072,1.26392 -0.376998,2.18314 l -0.214417,1.67105 -2.76502,0.0829 -2.765002,0.0829 -1.981284,12.13975 c -1.089706,6.67689 -1.989835,12.30422 -2.000282,12.50532 -0.02282,0.439 -2.899409,0.5173 -2.899409,0.08 z"
       id="path3137"
       style="font-size:40px;font-style:normal;font-weight:normal;line-height:125%;letter-spacing:0px;word-spacing:0px;fill:#008000;fill-opacity:1;stroke:none;font-family:Sans" />
    <path
       d="m 51.522936,1005.9538 c -2.272341,-1.9247 -2.991962,-5.93 -2.030667,-11.30211 0.845202,-4.72352 2.355462,-7.82696 4.818843,-9.90233 3.059822,-2.57792 6.127261,-1.52514 7.422594,2.54741 0.693954,2.18189 0.436816,7.47379 -0.520069,10.70298 -1.186883,4.00545 -3.308949,7.19545 -5.464012,8.21425 -1.410831,0.6668 -3.267346,0.5526 -4.226689,-0.2602 z m 4.495822,-4.1286 c 1.942937,-1.4942 3.49064,-6.68646 3.168543,-10.62981 -0.221165,-2.70773 -0.783648,-3.56438 -2.340278,-3.56438 -2.189829,0 -3.898678,2.85585 -4.625666,7.7303 -0.826098,5.53899 0.987004,8.62519 3.797401,6.46389 z"
       id="path3139"
       style="font-size:40px;font-style:normal;font-weight:normal;line-height:125%;letter-spacing:0px;word-spacing:0px;fill:#008000;fill-opacity:1;stroke:none;font-family:Sans" />
    <path
       d="m 63.766983,1005.6873 c 0,-0.5591 5.100946,-31.89165 5.200645,-31.94483 0.283518,-0.15172 2.624778,-0.70305 2.69824,-0.63595 0.0905,0.0829 -2.62265,17.18108 -2.966257,18.69307 -0.100528,0.44248 -0.06249,0.80425 0.08453,0.80425 0.147049,0 1.634693,-1.97308 3.305887,-4.38489 l 3.038535,-4.38505 1.520215,0 c 0.836112,0 1.520206,0.0626 1.520206,0.14076 0,0.0798 -1.512205,2.25838 -3.360468,4.8427 -1.848263,2.58433 -3.360478,4.84568 -3.360478,5.02539 0,0.17971 0.352907,1.13286 0.784235,2.11839 0.875145,1.99935 2.234186,6.58516 2.581817,8.71186 l 0.227127,1.3894 -1.570649,0 -1.570646,0 -0.67308,-2.7104 c -0.704342,-2.8361 -2.536931,-7.52773 -2.940444,-7.52773 -0.129093,0 -0.589211,2.27058 -1.022473,5.04603 l -0.787769,5.046 -1.354604,0.089 c -0.989911,0.065 -1.354593,-0.018 -1.354593,-0.3165 z"
       id="path3141"
       style="font-size:40px;font-style:normal;font-weight:normal;line-height:125%;letter-spacing:0px;word-spacing:0px;fill:#008000;fill-opacity:1;stroke:none;font-family:Sans" />
    <path
       d="m 80.729375,1006.0147 c -2.41221,-1.4791 -3.330458,-5.1469 -2.569243,-10.26206 1.247269,-8.38142 5.825574,-14.07091 9.670941,-12.01837 2.130429,1.13723 2.873063,3.73752 2.45039,8.5799 -0.393808,4.51174 0.126262,4.09257 -5.077555,4.09257 l -4.474533,0 0.002,1.38953 c 0.002,1.8478 0.493806,3.37323 1.302054,4.04173 0.77222,0.6387 3.556949,0.7234 4.741049,0.1439 0.401982,-0.1966 0.790821,-0.3027 0.86409,-0.2357 0.07327,0.067 0.03967,0.94 -0.07472,1.9399 -0.187766,1.642 -0.301425,1.8623 -1.172662,2.2742 -0.530602,0.2508 -1.769505,0.5202 -2.753099,0.5984 -1.504108,0.1204 -1.96643,0.033 -2.908528,-0.5443 z m 6.988877,-13.81502 c 0.06346,-0.30264 0.01724,-1.26799 -0.102626,-2.14498 -0.591549,-4.32733 -4.381237,-3.19384 -5.868131,1.75522 l -0.332678,1.10721 3.09406,-0.0829 c 2.734933,-0.0735 3.107433,-0.14702 3.209375,-0.63392 l 0,0 z"
       id="path3143"
       style="font-size:40px;font-style:normal;font-weight:normal;line-height:125%;letter-spacing:0px;word-spacing:0px;fill:#008000;fill-opacity:1;stroke:none;font-family:Sans" />
    <path
       d="m 91.931513,1005.7111 c 3.17e-4,-0.2104 0.720161,-4.7922 1.599657,-10.18181 0.879507,-5.38981 1.599349,-9.96161 1.599668,-10.15931 9.52e-4,-0.49347 2.267335,-1.50918 4.044435,-1.81261 1.472207,-0.2515 3.443697,0.0407 3.796467,0.56228 0.10033,0.14859 -0.0661,1.12192 -0.36967,2.16344 -0.50427,1.72971 -0.60625,1.8672 -1.17763,1.58785 -0.55857,-0.2734 -3.589047,-0.20755 -3.85046,0.0829 -0.057,0.0641 -0.743971,4.13027 -1.526522,9.03741 l -1.422827,8.92205 -1.346843,0.089 c -0.946084,0.062 -1.346669,-0.023 -1.346275,-0.2925 l 0,0 z"
       id="path3145"
       style="font-size:40px;font-style:normal;font-weight:normal;line-height:125%;letter-spacing:0px;word-spacing:0px;fill:#008000;fill-opacity:1;stroke:none;font-family:Sans" />
    <path
       d="m 107.20005,1006.0793 c -2.52856,-1.4807 -3.56021,-4.2053 -3.55153,-9.38008 0.01,-5.49085 1.14335,-10.32948 3.40996,-14.54795 2.12515,-3.95525 5.04764,-6.22112 8.0239,-6.22112 1.64158,0 3.33571,0.57714 4.17133,1.42112 0.56884,0.57448 0.56555,0.648 -0.11261,2.51065 -0.38422,1.05513 -0.76469,1.91865 -0.84549,1.91865 -0.0808,0 -0.54187,-0.26683 -1.02463,-0.59309 -2.22094,-1.50073 -5.3009,-0.77031 -7.07523,1.67809 -2.08498,2.87698 -3.34334,7.55748 -3.36542,12.51732 -0.0121,2.69648 0.0976,3.43956 0.67625,4.58651 1.18182,2.3424 3.76935,2.95 6.63384,1.558 l 1.50184,-0.73 -0.094,2.1193 -0.094,2.1195 -1.73763,0.8044 c -2.11688,0.9799 -5.06605,1.088 -6.51659,0.2387 l 0,0 z"
       id="path3147"
       style="font-size:40px;font-style:normal;font-weight:normal;line-height:125%;letter-spacing:0px;word-spacing:0px;fill:#00ff00;fill-opacity:1;stroke:none;font-family:Sans" />
    <path
       d="m 119.43658,1000.2827 c 2.79253,-7.36683 4.95388,-12.79027 7.50194,-18.82432 l 2.02556,-4.79687 1.48627,-0.0892 c 1.25425,-0.0751 1.48683,-0.0156 1.49002,0.43873 0.002,0.29045 0.21069,2.50252 0.46362,4.91574 0.2529,2.41338 0.68156,7.87623 0.95254,12.13975 0.27097,4.26351 0.56458,8.70617 0.65244,9.87267 l 0.15977,2.1209 -1.55055,0 -1.55055,0 -0.20561,-1.7981 c -0.1131,-0.989 -0.20561,-2.5687 -0.20561,-3.5104 l 0,-1.71224 -3.93548,0 -3.93548,0 -1.25034,3.51034 -1.25034,3.5104 -1.51911,0 -1.51911,0 2.19002,-5.7774 z m 10.79176,-9.51133 c -0.29568,-5.94756 -0.58933,-8.7629 -0.88574,-8.49201 -0.28745,0.26277 -1.97216,4.39553 -3.82115,9.37383 l -1.22224,3.29098 3.06828,0 3.06828,0 -0.20743,-4.1728 0,0 z"
       id="path3149"
       style="font-size:40px;font-style:normal;font-weight:normal;line-height:125%;letter-spacing:0px;word-spacing:0px;fill:#00ff00;fill-opacity:1;stroke:none;font-family:Sans" />
    <path
       d="m 136.41723,1005.5758 c 0,-0.7172 3.64685,-18.84883 4.90371,-24.38018 l 1.03021,-4.53411 1.31482,-0.0892 c 1.14483,-0.0766 1.3385,0 1.49812,0.58497 0.20848,0.76577 1.26475,9.35022 1.83969,14.95133 0.21155,2.06115 0.48624,3.64071 0.61041,3.51042 0.12419,-0.12982 0.9131,-1.88237 1.75315,-3.89362 0.84004,-2.01108 2.68633,-6.25631 4.10285,-9.43373 l 2.57545,-5.77739 1.4128,0 c 1.36819,0 1.40754,0.025 1.24647,0.8044 -0.0914,0.44248 -0.25626,1.8575 -0.36621,3.14458 -0.23431,2.74293 -2.62215,22.89373 -2.90309,24.49883 -0.1888,1.0787 -0.21587,1.097 -1.62949,1.097 -1.39795,0 -1.4326,-0.022 -1.25956,-0.8044 0.0979,-0.4425 0.68357,-4.7535 1.30154,-9.58015 0.61796,-4.82658 1.20479,-9.3022 1.30407,-9.94581 0.11965,-0.77578 0.0733,-1.07155 -0.13753,-0.8776 -0.29058,0.2673 -4.41759,9.68101 -6.63532,15.13495 -0.8834,2.17251 -0.9617,2.26401 -1.94107,2.26711 -1.21725,0.015 -1.08532,0.604 -2.02471,-9.2113 -0.62288,-6.50829 -0.89324,-8.49122 -1.12832,-8.27631 -0.13002,0.11886 -2.74858,13.1883 -3.59231,17.92951 l -0.57262,3.2177 -1.35153,0.089 c -1.11665,0.074 -1.35153,0 -1.35153,-0.4278 z"
       id="path3151"
       style="font-size:40px;font-style:normal;font-weight:normal;line-height:125%;letter-spacing:0px;word-spacing:0px;fill:#00ff00;fill-opacity:1;stroke:none;font-family:Sans" />
  </g>
</svg>
